<mxfile host="app.diagrams.net" modified="2022-01-10T03:00:53.656Z" agent="5.0 (Windows NT 10.0; Win64; x64) AppleWebKit/537.36 (KHTML, like Gecko) Chrome/96.0.4664.110 Safari/537.36 Edg/96.0.1054.62" etag="AbwzA0x1Mr0tYBW55E0O" version="16.2.4" type="github">
  <diagram id="lhV7Ldz4UNHA8f_VeTsW" name="Page-1">
    <mxGraphModel dx="5963" dy="6151" grid="0" gridSize="10" guides="1" tooltips="1" connect="1" arrows="1" fold="1" page="0" pageScale="1" pageWidth="827" pageHeight="1169" math="0" shadow="0">
      <root>
        <mxCell id="0" />
        <mxCell id="1" parent="0" />
        <mxCell id="dWQ8O_4r9y9YvBFa44wk-390" value="" style="rounded=1;whiteSpace=wrap;html=1;fillColor=#f5f5f5;fontColor=#333333;strokeColor=#666666;" parent="1" vertex="1">
          <mxGeometry x="-2029.82" y="-1629" width="1358" height="358" as="geometry" />
        </mxCell>
        <mxCell id="dWQ8O_4r9y9YvBFa44wk-334" value="" style="ellipse;shape=cloud;whiteSpace=wrap;html=1;" parent="1" vertex="1">
          <mxGeometry x="-1600.57" y="-1609.5" width="425" height="294" as="geometry" />
        </mxCell>
        <mxCell id="dWQ8O_4r9y9YvBFa44wk-335" value="" style="ellipse;shape=cloud;whiteSpace=wrap;html=1;" parent="1" vertex="1">
          <mxGeometry x="-1193.31" y="-1594.5" width="425" height="294" as="geometry" />
        </mxCell>
        <mxCell id="dWQ8O_4r9y9YvBFa44wk-2" value="" style="rounded=1;whiteSpace=wrap;html=1;fontSize=12;strokeColor=#666666;fillColor=#f5f5f5;fontColor=#333333;" parent="1" vertex="1">
          <mxGeometry x="-1524.34" y="-2509.5" width="406.38" height="70" as="geometry" />
        </mxCell>
        <mxCell id="dWQ8O_4r9y9YvBFa44wk-3" value="" style="rounded=1;whiteSpace=wrap;html=1;fontSize=12;strokeColor=#666666;fillColor=#f5f5f5;fontColor=#333333;" parent="1" vertex="1">
          <mxGeometry x="-1847" y="-2760" width="1046" height="202" as="geometry" />
        </mxCell>
        <mxCell id="dWQ8O_4r9y9YvBFa44wk-4" value="" style="rounded=1;whiteSpace=wrap;html=1;fontSize=12;strokeColor=#666666;fillColor=#f5f5f5;fontColor=#333333;" parent="1" vertex="1">
          <mxGeometry x="-1431.75" y="-2362" width="254.75" height="216.5" as="geometry" />
        </mxCell>
        <mxCell id="dWQ8O_4r9y9YvBFa44wk-5" value="" style="ellipse;whiteSpace=wrap;html=1;aspect=fixed;fontSize=14;fillColor=#dae8fc;strokeColor=#6c8ebf;" parent="1" vertex="1">
          <mxGeometry x="-1483.4299999999998" y="-2496" width="17" height="17" as="geometry" />
        </mxCell>
        <mxCell id="dWQ8O_4r9y9YvBFa44wk-6" value="" style="ellipse;whiteSpace=wrap;html=1;aspect=fixed;fontSize=14;fillColor=#dae8fc;strokeColor=#6c8ebf;" parent="1" vertex="1">
          <mxGeometry x="-1460.6799999999998" y="-2496" width="17" height="17" as="geometry" />
        </mxCell>
        <mxCell id="dWQ8O_4r9y9YvBFa44wk-7" value="" style="ellipse;whiteSpace=wrap;html=1;aspect=fixed;fontSize=14;fillColor=#dae8fc;strokeColor=#6c8ebf;" parent="1" vertex="1">
          <mxGeometry x="-1483.4299999999998" y="-2469.5" width="17" height="17" as="geometry" />
        </mxCell>
        <mxCell id="dWQ8O_4r9y9YvBFa44wk-8" value="" style="ellipse;whiteSpace=wrap;html=1;aspect=fixed;fontSize=14;fillColor=#dae8fc;strokeColor=#6c8ebf;" parent="1" vertex="1">
          <mxGeometry x="-1460.6799999999998" y="-2469.5" width="17" height="17" as="geometry" />
        </mxCell>
        <mxCell id="dWQ8O_4r9y9YvBFa44wk-9" value="" style="ellipse;whiteSpace=wrap;html=1;aspect=fixed;fontSize=14;fillColor=#dae8fc;strokeColor=#6c8ebf;" parent="1" vertex="1">
          <mxGeometry x="-1436.1799999999998" y="-2496" width="17" height="17" as="geometry" />
        </mxCell>
        <mxCell id="dWQ8O_4r9y9YvBFa44wk-10" value="" style="ellipse;whiteSpace=wrap;html=1;aspect=fixed;fontSize=14;fillColor=#dae8fc;strokeColor=#6c8ebf;" parent="1" vertex="1">
          <mxGeometry x="-1436.1799999999998" y="-2469.5" width="17" height="17" as="geometry" />
        </mxCell>
        <mxCell id="dWQ8O_4r9y9YvBFa44wk-11" value="" style="ellipse;whiteSpace=wrap;html=1;aspect=fixed;fontSize=14;fillColor=#d5e8d4;strokeColor=#82b366;" parent="1" vertex="1">
          <mxGeometry x="-1396.4399999999996" y="-2496" width="17" height="17" as="geometry" />
        </mxCell>
        <mxCell id="dWQ8O_4r9y9YvBFa44wk-12" value="" style="ellipse;whiteSpace=wrap;html=1;aspect=fixed;fontSize=14;fillColor=#d5e8d4;strokeColor=#82b366;" parent="1" vertex="1">
          <mxGeometry x="-1373.6899999999996" y="-2496" width="17" height="17" as="geometry" />
        </mxCell>
        <mxCell id="dWQ8O_4r9y9YvBFa44wk-13" value="" style="ellipse;whiteSpace=wrap;html=1;aspect=fixed;fontSize=14;fillColor=#d5e8d4;strokeColor=#82b366;" parent="1" vertex="1">
          <mxGeometry x="-1396.4399999999996" y="-2469.5" width="17" height="17" as="geometry" />
        </mxCell>
        <mxCell id="dWQ8O_4r9y9YvBFa44wk-14" value="" style="ellipse;whiteSpace=wrap;html=1;aspect=fixed;fontSize=14;fillColor=#d5e8d4;strokeColor=#82b366;" parent="1" vertex="1">
          <mxGeometry x="-1373.6899999999996" y="-2469.5" width="17" height="17" as="geometry" />
        </mxCell>
        <mxCell id="dWQ8O_4r9y9YvBFa44wk-15" value="" style="ellipse;whiteSpace=wrap;html=1;aspect=fixed;fontSize=14;fillColor=#d5e8d4;strokeColor=#82b366;" parent="1" vertex="1">
          <mxGeometry x="-1349.1899999999996" y="-2496" width="17" height="17" as="geometry" />
        </mxCell>
        <mxCell id="dWQ8O_4r9y9YvBFa44wk-16" value="" style="ellipse;whiteSpace=wrap;html=1;aspect=fixed;fontSize=14;fillColor=#d5e8d4;strokeColor=#82b366;" parent="1" vertex="1">
          <mxGeometry x="-1349.1899999999996" y="-2469.5" width="17" height="17" as="geometry" />
        </mxCell>
        <mxCell id="dWQ8O_4r9y9YvBFa44wk-17" value="" style="ellipse;whiteSpace=wrap;html=1;aspect=fixed;fontSize=14;fillColor=#fff2cc;strokeColor=#d6b656;" parent="1" vertex="1">
          <mxGeometry x="-1311.3099999999997" y="-2496" width="17" height="17" as="geometry" />
        </mxCell>
        <mxCell id="dWQ8O_4r9y9YvBFa44wk-18" value="" style="ellipse;whiteSpace=wrap;html=1;aspect=fixed;fontSize=14;fillColor=#fff2cc;strokeColor=#d6b656;" parent="1" vertex="1">
          <mxGeometry x="-1288.5599999999997" y="-2496" width="17" height="17" as="geometry" />
        </mxCell>
        <mxCell id="dWQ8O_4r9y9YvBFa44wk-19" value="" style="ellipse;whiteSpace=wrap;html=1;aspect=fixed;fontSize=14;fillColor=#fff2cc;strokeColor=#d6b656;" parent="1" vertex="1">
          <mxGeometry x="-1311.3099999999997" y="-2469.5" width="17" height="17" as="geometry" />
        </mxCell>
        <mxCell id="dWQ8O_4r9y9YvBFa44wk-20" value="" style="ellipse;whiteSpace=wrap;html=1;aspect=fixed;fontSize=14;fillColor=#fff2cc;strokeColor=#d6b656;" parent="1" vertex="1">
          <mxGeometry x="-1288.5599999999997" y="-2469.5" width="17" height="17" as="geometry" />
        </mxCell>
        <mxCell id="dWQ8O_4r9y9YvBFa44wk-21" value="" style="ellipse;whiteSpace=wrap;html=1;aspect=fixed;fontSize=14;fillColor=#fff2cc;strokeColor=#d6b656;" parent="1" vertex="1">
          <mxGeometry x="-1264.0599999999997" y="-2496" width="17" height="17" as="geometry" />
        </mxCell>
        <mxCell id="dWQ8O_4r9y9YvBFa44wk-22" value="" style="ellipse;whiteSpace=wrap;html=1;aspect=fixed;fontSize=14;fillColor=#fff2cc;strokeColor=#d6b656;" parent="1" vertex="1">
          <mxGeometry x="-1264.0599999999997" y="-2469.5" width="17" height="17" as="geometry" />
        </mxCell>
        <mxCell id="dWQ8O_4r9y9YvBFa44wk-23" value="" style="ellipse;whiteSpace=wrap;html=1;aspect=fixed;fontSize=14;fillColor=#f8cecc;strokeColor=#b85450;" parent="1" vertex="1">
          <mxGeometry x="-1224.3199999999997" y="-2496" width="17" height="17" as="geometry" />
        </mxCell>
        <mxCell id="dWQ8O_4r9y9YvBFa44wk-24" value="" style="ellipse;whiteSpace=wrap;html=1;aspect=fixed;fontSize=14;fillColor=#f8cecc;strokeColor=#b85450;" parent="1" vertex="1">
          <mxGeometry x="-1201.5699999999997" y="-2496" width="17" height="17" as="geometry" />
        </mxCell>
        <mxCell id="dWQ8O_4r9y9YvBFa44wk-25" value="" style="ellipse;whiteSpace=wrap;html=1;aspect=fixed;fontSize=14;fillColor=#f8cecc;strokeColor=#b85450;" parent="1" vertex="1">
          <mxGeometry x="-1224.3199999999997" y="-2469.5" width="17" height="17" as="geometry" />
        </mxCell>
        <mxCell id="dWQ8O_4r9y9YvBFa44wk-26" value="" style="ellipse;whiteSpace=wrap;html=1;aspect=fixed;fontSize=14;fillColor=#f8cecc;strokeColor=#b85450;" parent="1" vertex="1">
          <mxGeometry x="-1201.5699999999997" y="-2469.5" width="17" height="17" as="geometry" />
        </mxCell>
        <mxCell id="dWQ8O_4r9y9YvBFa44wk-27" value="" style="ellipse;whiteSpace=wrap;html=1;aspect=fixed;fontSize=14;fillColor=#f8cecc;strokeColor=#b85450;" parent="1" vertex="1">
          <mxGeometry x="-1177.0699999999997" y="-2496" width="17" height="17" as="geometry" />
        </mxCell>
        <mxCell id="dWQ8O_4r9y9YvBFa44wk-28" value="" style="ellipse;whiteSpace=wrap;html=1;aspect=fixed;fontSize=14;fillColor=#f8cecc;strokeColor=#b85450;" parent="1" vertex="1">
          <mxGeometry x="-1177.0699999999997" y="-2469.5" width="17" height="17" as="geometry" />
        </mxCell>
        <mxCell id="dWQ8O_4r9y9YvBFa44wk-29" value="" style="ellipse;whiteSpace=wrap;html=1;aspect=fixed;fontSize=14;" parent="1" vertex="1">
          <mxGeometry x="-1015.75" y="-2644.5" width="17" height="17" as="geometry" />
        </mxCell>
        <mxCell id="dWQ8O_4r9y9YvBFa44wk-30" value="" style="ellipse;whiteSpace=wrap;html=1;aspect=fixed;fontSize=14;" parent="1" vertex="1">
          <mxGeometry x="-993" y="-2644.5" width="17" height="17" as="geometry" />
        </mxCell>
        <mxCell id="dWQ8O_4r9y9YvBFa44wk-31" value="" style="ellipse;whiteSpace=wrap;html=1;aspect=fixed;fontSize=14;" parent="1" vertex="1">
          <mxGeometry x="-968.5" y="-2644.5" width="17" height="17" as="geometry" />
        </mxCell>
        <mxCell id="dWQ8O_4r9y9YvBFa44wk-32" value="" style="ellipse;whiteSpace=wrap;html=1;aspect=fixed;fontSize=14;" parent="1" vertex="1">
          <mxGeometry x="-948.38" y="-2647.5" width="17" height="17" as="geometry" />
        </mxCell>
        <mxCell id="dWQ8O_4r9y9YvBFa44wk-33" value="" style="ellipse;whiteSpace=wrap;html=1;aspect=fixed;fontSize=14;" parent="1" vertex="1">
          <mxGeometry x="-925.63" y="-2647.5" width="17" height="17" as="geometry" />
        </mxCell>
        <mxCell id="dWQ8O_4r9y9YvBFa44wk-34" value="" style="ellipse;whiteSpace=wrap;html=1;aspect=fixed;fontSize=14;" parent="1" vertex="1">
          <mxGeometry x="-901.13" y="-2647.5" width="17" height="17" as="geometry" />
        </mxCell>
        <mxCell id="dWQ8O_4r9y9YvBFa44wk-35" value="" style="ellipse;whiteSpace=wrap;html=1;aspect=fixed;fontSize=14;" parent="1" vertex="1">
          <mxGeometry x="-869.5" y="-2647.5" width="17" height="17" as="geometry" />
        </mxCell>
        <mxCell id="dWQ8O_4r9y9YvBFa44wk-36" value="" style="ellipse;whiteSpace=wrap;html=1;aspect=fixed;fontSize=14;" parent="1" vertex="1">
          <mxGeometry x="-1035.26" y="-2671" width="17" height="17" as="geometry" />
        </mxCell>
        <mxCell id="dWQ8O_4r9y9YvBFa44wk-37" value="" style="ellipse;whiteSpace=wrap;html=1;aspect=fixed;fontSize=14;" parent="1" vertex="1">
          <mxGeometry x="-1010.76" y="-2671" width="17" height="17" as="geometry" />
        </mxCell>
        <mxCell id="dWQ8O_4r9y9YvBFa44wk-38" value="" style="ellipse;whiteSpace=wrap;html=1;aspect=fixed;fontSize=14;" parent="1" vertex="1">
          <mxGeometry x="-986.98" y="-2675.5" width="17" height="17" as="geometry" />
        </mxCell>
        <mxCell id="dWQ8O_4r9y9YvBFa44wk-39" value="" style="ellipse;whiteSpace=wrap;html=1;aspect=fixed;fontSize=14;" parent="1" vertex="1">
          <mxGeometry x="-964.23" y="-2675.5" width="17" height="17" as="geometry" />
        </mxCell>
        <mxCell id="dWQ8O_4r9y9YvBFa44wk-40" value="" style="ellipse;whiteSpace=wrap;html=1;aspect=fixed;fontSize=14;" parent="1" vertex="1">
          <mxGeometry x="-1010.99" y="-2700" width="17" height="17" as="geometry" />
        </mxCell>
        <mxCell id="dWQ8O_4r9y9YvBFa44wk-41" value="" style="ellipse;whiteSpace=wrap;html=1;aspect=fixed;fontSize=14;" parent="1" vertex="1">
          <mxGeometry x="-988.24" y="-2700" width="17" height="17" as="geometry" />
        </mxCell>
        <mxCell id="dWQ8O_4r9y9YvBFa44wk-42" value="" style="ellipse;whiteSpace=wrap;html=1;aspect=fixed;fontSize=14;" parent="1" vertex="1">
          <mxGeometry x="-939.73" y="-2675.5" width="17" height="17" as="geometry" />
        </mxCell>
        <mxCell id="dWQ8O_4r9y9YvBFa44wk-43" value="" style="ellipse;whiteSpace=wrap;html=1;aspect=fixed;fontSize=14;" parent="1" vertex="1">
          <mxGeometry x="-963.74" y="-2700" width="17" height="17" as="geometry" />
        </mxCell>
        <mxCell id="dWQ8O_4r9y9YvBFa44wk-44" value="" style="ellipse;whiteSpace=wrap;html=1;aspect=fixed;fontSize=14;" parent="1" vertex="1">
          <mxGeometry x="-899.99" y="-2675.5" width="17" height="17" as="geometry" />
        </mxCell>
        <mxCell id="dWQ8O_4r9y9YvBFa44wk-45" value="" style="ellipse;whiteSpace=wrap;html=1;aspect=fixed;fontSize=14;" parent="1" vertex="1">
          <mxGeometry x="-1004.01" y="-2726.5" width="17" height="17" as="geometry" />
        </mxCell>
        <mxCell id="dWQ8O_4r9y9YvBFa44wk-46" value="" style="ellipse;whiteSpace=wrap;html=1;aspect=fixed;fontSize=14;" parent="1" vertex="1">
          <mxGeometry x="-939" y="-2700" width="17" height="17" as="geometry" />
        </mxCell>
        <mxCell id="dWQ8O_4r9y9YvBFa44wk-47" value="" style="ellipse;whiteSpace=wrap;html=1;aspect=fixed;fontSize=14;" parent="1" vertex="1">
          <mxGeometry x="-914" y="-2700" width="17" height="17" as="geometry" />
        </mxCell>
        <mxCell id="dWQ8O_4r9y9YvBFa44wk-48" value="" style="ellipse;whiteSpace=wrap;html=1;aspect=fixed;fontSize=14;" parent="1" vertex="1">
          <mxGeometry x="-979.51" y="-2726.5" width="17" height="17" as="geometry" />
        </mxCell>
        <mxCell id="dWQ8O_4r9y9YvBFa44wk-49" value="" style="ellipse;whiteSpace=wrap;html=1;aspect=fixed;fontSize=14;" parent="1" vertex="1">
          <mxGeometry x="-876.75" y="-2700" width="17" height="17" as="geometry" />
        </mxCell>
        <mxCell id="dWQ8O_4r9y9YvBFa44wk-50" value="" style="ellipse;whiteSpace=wrap;html=1;aspect=fixed;fontSize=14;" parent="1" vertex="1">
          <mxGeometry x="-941.63" y="-2726.5" width="17" height="17" as="geometry" />
        </mxCell>
        <mxCell id="dWQ8O_4r9y9YvBFa44wk-51" value="" style="ellipse;whiteSpace=wrap;html=1;aspect=fixed;fontSize=14;" parent="1" vertex="1">
          <mxGeometry x="-918.88" y="-2726.5" width="17" height="17" as="geometry" />
        </mxCell>
        <mxCell id="dWQ8O_4r9y9YvBFa44wk-52" value="" style="ellipse;whiteSpace=wrap;html=1;aspect=fixed;fontSize=14;" parent="1" vertex="1">
          <mxGeometry x="-872" y="-2675.5" width="17" height="17" as="geometry" />
        </mxCell>
        <mxCell id="dWQ8O_4r9y9YvBFa44wk-53" value="" style="ellipse;whiteSpace=wrap;html=1;aspect=fixed;fontSize=14;" parent="1" vertex="1">
          <mxGeometry x="-894.38" y="-2726.5" width="17" height="17" as="geometry" />
        </mxCell>
        <mxCell id="dWQ8O_4r9y9YvBFa44wk-54" value="" style="ellipse;shape=cloud;whiteSpace=wrap;html=1;fontSize=12;" parent="1" vertex="1">
          <mxGeometry x="-1075" y="-2763" width="259" height="192" as="geometry" />
        </mxCell>
        <mxCell id="dWQ8O_4r9y9YvBFa44wk-55" value="" style="ellipse;whiteSpace=wrap;html=1;aspect=fixed;fontSize=14;" parent="1" vertex="1">
          <mxGeometry x="-1278.75" y="-2640" width="17" height="17" as="geometry" />
        </mxCell>
        <mxCell id="dWQ8O_4r9y9YvBFa44wk-56" value="" style="ellipse;whiteSpace=wrap;html=1;aspect=fixed;fontSize=14;" parent="1" vertex="1">
          <mxGeometry x="-1256" y="-2640" width="17" height="17" as="geometry" />
        </mxCell>
        <mxCell id="dWQ8O_4r9y9YvBFa44wk-57" value="" style="ellipse;whiteSpace=wrap;html=1;aspect=fixed;fontSize=14;" parent="1" vertex="1">
          <mxGeometry x="-1231.5" y="-2640" width="17" height="17" as="geometry" />
        </mxCell>
        <mxCell id="dWQ8O_4r9y9YvBFa44wk-58" value="" style="ellipse;whiteSpace=wrap;html=1;aspect=fixed;fontSize=14;" parent="1" vertex="1">
          <mxGeometry x="-1211.38" y="-2643" width="17" height="17" as="geometry" />
        </mxCell>
        <mxCell id="dWQ8O_4r9y9YvBFa44wk-59" value="" style="ellipse;whiteSpace=wrap;html=1;aspect=fixed;fontSize=14;" parent="1" vertex="1">
          <mxGeometry x="-1188.63" y="-2643" width="17" height="17" as="geometry" />
        </mxCell>
        <mxCell id="dWQ8O_4r9y9YvBFa44wk-60" value="" style="ellipse;whiteSpace=wrap;html=1;aspect=fixed;fontSize=14;" parent="1" vertex="1">
          <mxGeometry x="-1164.13" y="-2643" width="17" height="17" as="geometry" />
        </mxCell>
        <mxCell id="dWQ8O_4r9y9YvBFa44wk-61" value="" style="ellipse;whiteSpace=wrap;html=1;aspect=fixed;fontSize=14;" parent="1" vertex="1">
          <mxGeometry x="-1132.5" y="-2643" width="17" height="17" as="geometry" />
        </mxCell>
        <mxCell id="dWQ8O_4r9y9YvBFa44wk-62" value="" style="ellipse;whiteSpace=wrap;html=1;aspect=fixed;fontSize=14;" parent="1" vertex="1">
          <mxGeometry x="-1298.26" y="-2666.5" width="17" height="17" as="geometry" />
        </mxCell>
        <mxCell id="dWQ8O_4r9y9YvBFa44wk-63" value="" style="ellipse;whiteSpace=wrap;html=1;aspect=fixed;fontSize=14;" parent="1" vertex="1">
          <mxGeometry x="-1273.76" y="-2666.5" width="17" height="17" as="geometry" />
        </mxCell>
        <mxCell id="dWQ8O_4r9y9YvBFa44wk-64" value="" style="ellipse;whiteSpace=wrap;html=1;aspect=fixed;fontSize=14;" parent="1" vertex="1">
          <mxGeometry x="-1249.98" y="-2671" width="17" height="17" as="geometry" />
        </mxCell>
        <mxCell id="dWQ8O_4r9y9YvBFa44wk-65" value="" style="ellipse;whiteSpace=wrap;html=1;aspect=fixed;fontSize=14;" parent="1" vertex="1">
          <mxGeometry x="-1227.23" y="-2671" width="17" height="17" as="geometry" />
        </mxCell>
        <mxCell id="dWQ8O_4r9y9YvBFa44wk-66" value="" style="ellipse;whiteSpace=wrap;html=1;aspect=fixed;fontSize=14;" parent="1" vertex="1">
          <mxGeometry x="-1273.99" y="-2695.5" width="17" height="17" as="geometry" />
        </mxCell>
        <mxCell id="dWQ8O_4r9y9YvBFa44wk-67" value="" style="ellipse;whiteSpace=wrap;html=1;aspect=fixed;fontSize=14;" parent="1" vertex="1">
          <mxGeometry x="-1251.24" y="-2695.5" width="17" height="17" as="geometry" />
        </mxCell>
        <mxCell id="dWQ8O_4r9y9YvBFa44wk-68" value="" style="ellipse;whiteSpace=wrap;html=1;aspect=fixed;fontSize=14;" parent="1" vertex="1">
          <mxGeometry x="-1202.73" y="-2671" width="17" height="17" as="geometry" />
        </mxCell>
        <mxCell id="dWQ8O_4r9y9YvBFa44wk-69" value="" style="ellipse;whiteSpace=wrap;html=1;aspect=fixed;fontSize=14;" parent="1" vertex="1">
          <mxGeometry x="-1226.74" y="-2695.5" width="17" height="17" as="geometry" />
        </mxCell>
        <mxCell id="dWQ8O_4r9y9YvBFa44wk-70" value="" style="ellipse;whiteSpace=wrap;html=1;aspect=fixed;fontSize=14;" parent="1" vertex="1">
          <mxGeometry x="-1162.99" y="-2671" width="17" height="17" as="geometry" />
        </mxCell>
        <mxCell id="dWQ8O_4r9y9YvBFa44wk-71" value="" style="ellipse;whiteSpace=wrap;html=1;aspect=fixed;fontSize=14;" parent="1" vertex="1">
          <mxGeometry x="-1267.01" y="-2722" width="17" height="17" as="geometry" />
        </mxCell>
        <mxCell id="dWQ8O_4r9y9YvBFa44wk-72" value="" style="ellipse;whiteSpace=wrap;html=1;aspect=fixed;fontSize=14;" parent="1" vertex="1">
          <mxGeometry x="-1202" y="-2695.5" width="17" height="17" as="geometry" />
        </mxCell>
        <mxCell id="dWQ8O_4r9y9YvBFa44wk-73" value="" style="ellipse;whiteSpace=wrap;html=1;aspect=fixed;fontSize=14;" parent="1" vertex="1">
          <mxGeometry x="-1177" y="-2695.5" width="17" height="17" as="geometry" />
        </mxCell>
        <mxCell id="dWQ8O_4r9y9YvBFa44wk-74" value="" style="ellipse;whiteSpace=wrap;html=1;aspect=fixed;fontSize=14;" parent="1" vertex="1">
          <mxGeometry x="-1242.51" y="-2722" width="17" height="17" as="geometry" />
        </mxCell>
        <mxCell id="dWQ8O_4r9y9YvBFa44wk-75" value="" style="ellipse;whiteSpace=wrap;html=1;aspect=fixed;fontSize=14;" parent="1" vertex="1">
          <mxGeometry x="-1139.75" y="-2695.5" width="17" height="17" as="geometry" />
        </mxCell>
        <mxCell id="dWQ8O_4r9y9YvBFa44wk-76" value="" style="ellipse;whiteSpace=wrap;html=1;aspect=fixed;fontSize=14;" parent="1" vertex="1">
          <mxGeometry x="-1204.63" y="-2722" width="17" height="17" as="geometry" />
        </mxCell>
        <mxCell id="dWQ8O_4r9y9YvBFa44wk-77" value="" style="ellipse;whiteSpace=wrap;html=1;aspect=fixed;fontSize=14;" parent="1" vertex="1">
          <mxGeometry x="-1181.88" y="-2722" width="17" height="17" as="geometry" />
        </mxCell>
        <mxCell id="dWQ8O_4r9y9YvBFa44wk-78" value="" style="ellipse;whiteSpace=wrap;html=1;aspect=fixed;fontSize=14;" parent="1" vertex="1">
          <mxGeometry x="-1135" y="-2671" width="17" height="17" as="geometry" />
        </mxCell>
        <mxCell id="dWQ8O_4r9y9YvBFa44wk-79" value="" style="ellipse;whiteSpace=wrap;html=1;aspect=fixed;fontSize=14;" parent="1" vertex="1">
          <mxGeometry x="-1157.38" y="-2722" width="17" height="17" as="geometry" />
        </mxCell>
        <mxCell id="dWQ8O_4r9y9YvBFa44wk-80" value="" style="ellipse;shape=cloud;whiteSpace=wrap;html=1;fontSize=12;" parent="1" vertex="1">
          <mxGeometry x="-1338" y="-2758.5" width="259" height="192" as="geometry" />
        </mxCell>
        <mxCell id="dWQ8O_4r9y9YvBFa44wk-81" value="" style="ellipse;whiteSpace=wrap;html=1;aspect=fixed;fontSize=14;" parent="1" vertex="1">
          <mxGeometry x="-1005.75" y="-2634.5" width="17" height="17" as="geometry" />
        </mxCell>
        <mxCell id="dWQ8O_4r9y9YvBFa44wk-82" value="" style="ellipse;whiteSpace=wrap;html=1;aspect=fixed;fontSize=14;fillColor=#f8cecc;strokeColor=#b85450;" parent="1" vertex="1">
          <mxGeometry x="-983" y="-2634.5" width="17" height="17" as="geometry" />
        </mxCell>
        <mxCell id="dWQ8O_4r9y9YvBFa44wk-83" value="" style="ellipse;whiteSpace=wrap;html=1;aspect=fixed;fontSize=14;" parent="1" vertex="1">
          <mxGeometry x="-958.5" y="-2634.5" width="17" height="17" as="geometry" />
        </mxCell>
        <mxCell id="dWQ8O_4r9y9YvBFa44wk-84" value="" style="ellipse;whiteSpace=wrap;html=1;aspect=fixed;fontSize=14;" parent="1" vertex="1">
          <mxGeometry x="-938.38" y="-2637.5" width="17" height="17" as="geometry" />
        </mxCell>
        <mxCell id="dWQ8O_4r9y9YvBFa44wk-85" value="" style="ellipse;whiteSpace=wrap;html=1;aspect=fixed;fontSize=14;" parent="1" vertex="1">
          <mxGeometry x="-915.63" y="-2637.5" width="17" height="17" as="geometry" />
        </mxCell>
        <mxCell id="dWQ8O_4r9y9YvBFa44wk-86" value="" style="ellipse;whiteSpace=wrap;html=1;aspect=fixed;fontSize=14;fillColor=#f8cecc;strokeColor=#b85450;" parent="1" vertex="1">
          <mxGeometry x="-891.13" y="-2637.5" width="17" height="17" as="geometry" />
        </mxCell>
        <mxCell id="dWQ8O_4r9y9YvBFa44wk-87" value="" style="ellipse;whiteSpace=wrap;html=1;aspect=fixed;fontSize=14;" parent="1" vertex="1">
          <mxGeometry x="-859.5" y="-2637.5" width="17" height="17" as="geometry" />
        </mxCell>
        <mxCell id="dWQ8O_4r9y9YvBFa44wk-88" value="" style="ellipse;whiteSpace=wrap;html=1;aspect=fixed;fontSize=14;" parent="1" vertex="1">
          <mxGeometry x="-1025.26" y="-2661" width="17" height="17" as="geometry" />
        </mxCell>
        <mxCell id="dWQ8O_4r9y9YvBFa44wk-89" value="" style="ellipse;whiteSpace=wrap;html=1;aspect=fixed;fontSize=14;fillColor=#f8cecc;strokeColor=#b85450;" parent="1" vertex="1">
          <mxGeometry x="-1000.76" y="-2661" width="17" height="17" as="geometry" />
        </mxCell>
        <mxCell id="dWQ8O_4r9y9YvBFa44wk-90" value="" style="ellipse;whiteSpace=wrap;html=1;aspect=fixed;fontSize=14;" parent="1" vertex="1">
          <mxGeometry x="-976.98" y="-2665.5" width="17" height="17" as="geometry" />
        </mxCell>
        <mxCell id="dWQ8O_4r9y9YvBFa44wk-91" value="" style="ellipse;whiteSpace=wrap;html=1;aspect=fixed;fontSize=14;" parent="1" vertex="1">
          <mxGeometry x="-954.23" y="-2665.5" width="17" height="17" as="geometry" />
        </mxCell>
        <mxCell id="dWQ8O_4r9y9YvBFa44wk-92" value="" style="ellipse;whiteSpace=wrap;html=1;aspect=fixed;fontSize=14;" parent="1" vertex="1">
          <mxGeometry x="-1000.99" y="-2690" width="17" height="17" as="geometry" />
        </mxCell>
        <mxCell id="dWQ8O_4r9y9YvBFa44wk-93" value="" style="ellipse;whiteSpace=wrap;html=1;aspect=fixed;fontSize=14;" parent="1" vertex="1">
          <mxGeometry x="-978.24" y="-2690" width="17" height="17" as="geometry" />
        </mxCell>
        <mxCell id="dWQ8O_4r9y9YvBFa44wk-94" value="" style="ellipse;whiteSpace=wrap;html=1;aspect=fixed;fontSize=14;fillColor=#f8cecc;strokeColor=#b85450;" parent="1" vertex="1">
          <mxGeometry x="-929.73" y="-2665.5" width="17" height="17" as="geometry" />
        </mxCell>
        <mxCell id="dWQ8O_4r9y9YvBFa44wk-95" value="" style="ellipse;whiteSpace=wrap;html=1;aspect=fixed;fontSize=14;" parent="1" vertex="1">
          <mxGeometry x="-953.74" y="-2690" width="17" height="17" as="geometry" />
        </mxCell>
        <mxCell id="dWQ8O_4r9y9YvBFa44wk-96" value="" style="ellipse;whiteSpace=wrap;html=1;aspect=fixed;fontSize=14;" parent="1" vertex="1">
          <mxGeometry x="-889.99" y="-2665.5" width="17" height="17" as="geometry" />
        </mxCell>
        <mxCell id="dWQ8O_4r9y9YvBFa44wk-97" value="" style="ellipse;whiteSpace=wrap;html=1;aspect=fixed;fontSize=14;" parent="1" vertex="1">
          <mxGeometry x="-994.01" y="-2716.5" width="17" height="17" as="geometry" />
        </mxCell>
        <mxCell id="dWQ8O_4r9y9YvBFa44wk-98" value="" style="ellipse;whiteSpace=wrap;html=1;aspect=fixed;fontSize=14;" parent="1" vertex="1">
          <mxGeometry x="-929" y="-2690" width="17" height="17" as="geometry" />
        </mxCell>
        <mxCell id="dWQ8O_4r9y9YvBFa44wk-99" value="" style="ellipse;whiteSpace=wrap;html=1;aspect=fixed;fontSize=14;" parent="1" vertex="1">
          <mxGeometry x="-904" y="-2690" width="17" height="17" as="geometry" />
        </mxCell>
        <mxCell id="dWQ8O_4r9y9YvBFa44wk-100" value="" style="ellipse;whiteSpace=wrap;html=1;aspect=fixed;fontSize=14;fillColor=#f8cecc;strokeColor=#b85450;" parent="1" vertex="1">
          <mxGeometry x="-969.51" y="-2716.5" width="17" height="17" as="geometry" />
        </mxCell>
        <mxCell id="dWQ8O_4r9y9YvBFa44wk-101" value="" style="ellipse;whiteSpace=wrap;html=1;aspect=fixed;fontSize=14;" parent="1" vertex="1">
          <mxGeometry x="-866.75" y="-2690" width="17" height="17" as="geometry" />
        </mxCell>
        <mxCell id="dWQ8O_4r9y9YvBFa44wk-102" value="" style="ellipse;whiteSpace=wrap;html=1;aspect=fixed;fontSize=14;" parent="1" vertex="1">
          <mxGeometry x="-931.63" y="-2716.5" width="17" height="17" as="geometry" />
        </mxCell>
        <mxCell id="dWQ8O_4r9y9YvBFa44wk-103" value="" style="ellipse;whiteSpace=wrap;html=1;aspect=fixed;fontSize=14;" parent="1" vertex="1">
          <mxGeometry x="-908.88" y="-2716.5" width="17" height="17" as="geometry" />
        </mxCell>
        <mxCell id="dWQ8O_4r9y9YvBFa44wk-104" value="" style="ellipse;whiteSpace=wrap;html=1;aspect=fixed;fontSize=14;" parent="1" vertex="1">
          <mxGeometry x="-862" y="-2665.5" width="17" height="17" as="geometry" />
        </mxCell>
        <mxCell id="dWQ8O_4r9y9YvBFa44wk-105" value="" style="ellipse;whiteSpace=wrap;html=1;aspect=fixed;fontSize=14;fillColor=#f8cecc;strokeColor=#b85450;" parent="1" vertex="1">
          <mxGeometry x="-884.38" y="-2716.5" width="17" height="17" as="geometry" />
        </mxCell>
        <mxCell id="dWQ8O_4r9y9YvBFa44wk-106" value="" style="ellipse;whiteSpace=wrap;html=1;aspect=fixed;fontSize=14;" parent="1" vertex="1">
          <mxGeometry x="-1268.75" y="-2630" width="17" height="17" as="geometry" />
        </mxCell>
        <mxCell id="dWQ8O_4r9y9YvBFa44wk-107" value="" style="ellipse;whiteSpace=wrap;html=1;aspect=fixed;fontSize=14;" parent="1" vertex="1">
          <mxGeometry x="-1246" y="-2630" width="17" height="17" as="geometry" />
        </mxCell>
        <mxCell id="dWQ8O_4r9y9YvBFa44wk-108" value="" style="ellipse;whiteSpace=wrap;html=1;aspect=fixed;fontSize=14;fillColor=#fff2cc;strokeColor=#d6b656;" parent="1" vertex="1">
          <mxGeometry x="-1221.5" y="-2630" width="17" height="17" as="geometry" />
        </mxCell>
        <mxCell id="dWQ8O_4r9y9YvBFa44wk-109" value="" style="ellipse;whiteSpace=wrap;html=1;aspect=fixed;fontSize=14;" parent="1" vertex="1">
          <mxGeometry x="-1201.38" y="-2633" width="17" height="17" as="geometry" />
        </mxCell>
        <mxCell id="dWQ8O_4r9y9YvBFa44wk-110" value="" style="ellipse;whiteSpace=wrap;html=1;aspect=fixed;fontSize=14;" parent="1" vertex="1">
          <mxGeometry x="-1178.63" y="-2633" width="17" height="17" as="geometry" />
        </mxCell>
        <mxCell id="dWQ8O_4r9y9YvBFa44wk-111" value="" style="ellipse;whiteSpace=wrap;html=1;aspect=fixed;fontSize=14;fillColor=#fff2cc;strokeColor=#d6b656;" parent="1" vertex="1">
          <mxGeometry x="-1154.13" y="-2633" width="17" height="17" as="geometry" />
        </mxCell>
        <mxCell id="dWQ8O_4r9y9YvBFa44wk-112" value="" style="ellipse;whiteSpace=wrap;html=1;aspect=fixed;fontSize=14;" parent="1" vertex="1">
          <mxGeometry x="-1122.5" y="-2633" width="17" height="17" as="geometry" />
        </mxCell>
        <mxCell id="dWQ8O_4r9y9YvBFa44wk-113" value="" style="ellipse;whiteSpace=wrap;html=1;aspect=fixed;fontSize=14;" parent="1" vertex="1">
          <mxGeometry x="-1288.26" y="-2656.5" width="17" height="17" as="geometry" />
        </mxCell>
        <mxCell id="dWQ8O_4r9y9YvBFa44wk-114" value="" style="ellipse;whiteSpace=wrap;html=1;aspect=fixed;fontSize=14;fillColor=#fff2cc;strokeColor=#d6b656;" parent="1" vertex="1">
          <mxGeometry x="-1263.76" y="-2656.5" width="17" height="17" as="geometry" />
        </mxCell>
        <mxCell id="dWQ8O_4r9y9YvBFa44wk-115" value="" style="ellipse;whiteSpace=wrap;html=1;aspect=fixed;fontSize=14;" parent="1" vertex="1">
          <mxGeometry x="-1239.98" y="-2661" width="17" height="17" as="geometry" />
        </mxCell>
        <mxCell id="dWQ8O_4r9y9YvBFa44wk-116" value="" style="ellipse;whiteSpace=wrap;html=1;aspect=fixed;fontSize=14;" parent="1" vertex="1">
          <mxGeometry x="-1217.23" y="-2661" width="17" height="17" as="geometry" />
        </mxCell>
        <mxCell id="dWQ8O_4r9y9YvBFa44wk-117" value="" style="ellipse;whiteSpace=wrap;html=1;aspect=fixed;fontSize=14;" parent="1" vertex="1">
          <mxGeometry x="-1263.99" y="-2685.5" width="17" height="17" as="geometry" />
        </mxCell>
        <mxCell id="dWQ8O_4r9y9YvBFa44wk-118" value="" style="ellipse;whiteSpace=wrap;html=1;aspect=fixed;fontSize=14;" parent="1" vertex="1">
          <mxGeometry x="-1241.24" y="-2685.5" width="17" height="17" as="geometry" />
        </mxCell>
        <mxCell id="dWQ8O_4r9y9YvBFa44wk-119" value="" style="ellipse;whiteSpace=wrap;html=1;aspect=fixed;fontSize=14;" parent="1" vertex="1">
          <mxGeometry x="-1192.73" y="-2661" width="17" height="17" as="geometry" />
        </mxCell>
        <mxCell id="dWQ8O_4r9y9YvBFa44wk-120" value="" style="ellipse;whiteSpace=wrap;html=1;aspect=fixed;fontSize=14;fillColor=#fff2cc;strokeColor=#d6b656;" parent="1" vertex="1">
          <mxGeometry x="-1216.74" y="-2685.5" width="17" height="17" as="geometry" />
        </mxCell>
        <mxCell id="dWQ8O_4r9y9YvBFa44wk-121" value="" style="ellipse;whiteSpace=wrap;html=1;aspect=fixed;fontSize=14;" parent="1" vertex="1">
          <mxGeometry x="-1152.99" y="-2661" width="17" height="17" as="geometry" />
        </mxCell>
        <mxCell id="dWQ8O_4r9y9YvBFa44wk-122" value="" style="ellipse;whiteSpace=wrap;html=1;aspect=fixed;fontSize=14;fillColor=#fff2cc;strokeColor=#d6b656;" parent="1" vertex="1">
          <mxGeometry x="-1257.01" y="-2712" width="17" height="17" as="geometry" />
        </mxCell>
        <mxCell id="dWQ8O_4r9y9YvBFa44wk-123" value="" style="ellipse;whiteSpace=wrap;html=1;aspect=fixed;fontSize=14;" parent="1" vertex="1">
          <mxGeometry x="-1192" y="-2685.5" width="17" height="17" as="geometry" />
        </mxCell>
        <mxCell id="dWQ8O_4r9y9YvBFa44wk-124" value="" style="ellipse;whiteSpace=wrap;html=1;aspect=fixed;fontSize=14;" parent="1" vertex="1">
          <mxGeometry x="-1167" y="-2685.5" width="17" height="17" as="geometry" />
        </mxCell>
        <mxCell id="dWQ8O_4r9y9YvBFa44wk-125" value="" style="ellipse;whiteSpace=wrap;html=1;aspect=fixed;fontSize=14;" parent="1" vertex="1">
          <mxGeometry x="-1232.51" y="-2712" width="17" height="17" as="geometry" />
        </mxCell>
        <mxCell id="dWQ8O_4r9y9YvBFa44wk-126" value="" style="ellipse;whiteSpace=wrap;html=1;aspect=fixed;fontSize=14;" parent="1" vertex="1">
          <mxGeometry x="-1129.75" y="-2685.5" width="17" height="17" as="geometry" />
        </mxCell>
        <mxCell id="dWQ8O_4r9y9YvBFa44wk-127" value="" style="ellipse;whiteSpace=wrap;html=1;aspect=fixed;fontSize=14;" parent="1" vertex="1">
          <mxGeometry x="-1194.63" y="-2712" width="17" height="17" as="geometry" />
        </mxCell>
        <mxCell id="dWQ8O_4r9y9YvBFa44wk-128" value="" style="ellipse;whiteSpace=wrap;html=1;aspect=fixed;fontSize=14;" parent="1" vertex="1">
          <mxGeometry x="-1171.88" y="-2712" width="17" height="17" as="geometry" />
        </mxCell>
        <mxCell id="dWQ8O_4r9y9YvBFa44wk-129" value="" style="ellipse;whiteSpace=wrap;html=1;aspect=fixed;fontSize=14;" parent="1" vertex="1">
          <mxGeometry x="-1125" y="-2661" width="17" height="17" as="geometry" />
        </mxCell>
        <mxCell id="dWQ8O_4r9y9YvBFa44wk-130" value="" style="ellipse;whiteSpace=wrap;html=1;aspect=fixed;fontSize=14;fillColor=#fff2cc;strokeColor=#d6b656;" parent="1" vertex="1">
          <mxGeometry x="-1147.38" y="-2712" width="17" height="17" as="geometry" />
        </mxCell>
        <mxCell id="dWQ8O_4r9y9YvBFa44wk-131" value="" style="ellipse;whiteSpace=wrap;html=1;aspect=fixed;fontSize=14;" parent="1" vertex="1">
          <mxGeometry x="-1524.75" y="-2642.25" width="17" height="17" as="geometry" />
        </mxCell>
        <mxCell id="dWQ8O_4r9y9YvBFa44wk-132" value="" style="ellipse;whiteSpace=wrap;html=1;aspect=fixed;fontSize=14;" parent="1" vertex="1">
          <mxGeometry x="-1502" y="-2642.25" width="17" height="17" as="geometry" />
        </mxCell>
        <mxCell id="dWQ8O_4r9y9YvBFa44wk-133" value="" style="ellipse;whiteSpace=wrap;html=1;aspect=fixed;fontSize=14;" parent="1" vertex="1">
          <mxGeometry x="-1477.5" y="-2642.25" width="17" height="17" as="geometry" />
        </mxCell>
        <mxCell id="dWQ8O_4r9y9YvBFa44wk-134" value="" style="ellipse;whiteSpace=wrap;html=1;aspect=fixed;fontSize=14;" parent="1" vertex="1">
          <mxGeometry x="-1457.38" y="-2645.25" width="17" height="17" as="geometry" />
        </mxCell>
        <mxCell id="dWQ8O_4r9y9YvBFa44wk-135" value="" style="ellipse;whiteSpace=wrap;html=1;aspect=fixed;fontSize=14;" parent="1" vertex="1">
          <mxGeometry x="-1434.63" y="-2645.25" width="17" height="17" as="geometry" />
        </mxCell>
        <mxCell id="dWQ8O_4r9y9YvBFa44wk-136" value="" style="ellipse;whiteSpace=wrap;html=1;aspect=fixed;fontSize=14;" parent="1" vertex="1">
          <mxGeometry x="-1410.13" y="-2645.25" width="17" height="17" as="geometry" />
        </mxCell>
        <mxCell id="dWQ8O_4r9y9YvBFa44wk-137" value="" style="ellipse;whiteSpace=wrap;html=1;aspect=fixed;fontSize=14;" parent="1" vertex="1">
          <mxGeometry x="-1378.5" y="-2645.25" width="17" height="17" as="geometry" />
        </mxCell>
        <mxCell id="dWQ8O_4r9y9YvBFa44wk-138" value="" style="ellipse;whiteSpace=wrap;html=1;aspect=fixed;fontSize=14;" parent="1" vertex="1">
          <mxGeometry x="-1544.26" y="-2668.75" width="17" height="17" as="geometry" />
        </mxCell>
        <mxCell id="dWQ8O_4r9y9YvBFa44wk-139" value="" style="ellipse;whiteSpace=wrap;html=1;aspect=fixed;fontSize=14;" parent="1" vertex="1">
          <mxGeometry x="-1519.76" y="-2668.75" width="17" height="17" as="geometry" />
        </mxCell>
        <mxCell id="dWQ8O_4r9y9YvBFa44wk-140" value="" style="ellipse;whiteSpace=wrap;html=1;aspect=fixed;fontSize=14;" parent="1" vertex="1">
          <mxGeometry x="-1495.98" y="-2673.25" width="17" height="17" as="geometry" />
        </mxCell>
        <mxCell id="dWQ8O_4r9y9YvBFa44wk-141" value="" style="ellipse;whiteSpace=wrap;html=1;aspect=fixed;fontSize=14;" parent="1" vertex="1">
          <mxGeometry x="-1473.23" y="-2673.25" width="17" height="17" as="geometry" />
        </mxCell>
        <mxCell id="dWQ8O_4r9y9YvBFa44wk-142" value="" style="ellipse;whiteSpace=wrap;html=1;aspect=fixed;fontSize=14;" parent="1" vertex="1">
          <mxGeometry x="-1519.99" y="-2697.75" width="17" height="17" as="geometry" />
        </mxCell>
        <mxCell id="dWQ8O_4r9y9YvBFa44wk-143" value="" style="ellipse;whiteSpace=wrap;html=1;aspect=fixed;fontSize=14;" parent="1" vertex="1">
          <mxGeometry x="-1497.24" y="-2697.75" width="17" height="17" as="geometry" />
        </mxCell>
        <mxCell id="dWQ8O_4r9y9YvBFa44wk-144" value="" style="ellipse;whiteSpace=wrap;html=1;aspect=fixed;fontSize=14;" parent="1" vertex="1">
          <mxGeometry x="-1448.73" y="-2673.25" width="17" height="17" as="geometry" />
        </mxCell>
        <mxCell id="dWQ8O_4r9y9YvBFa44wk-145" value="" style="ellipse;whiteSpace=wrap;html=1;aspect=fixed;fontSize=14;" parent="1" vertex="1">
          <mxGeometry x="-1472.74" y="-2697.75" width="17" height="17" as="geometry" />
        </mxCell>
        <mxCell id="dWQ8O_4r9y9YvBFa44wk-146" value="" style="ellipse;whiteSpace=wrap;html=1;aspect=fixed;fontSize=14;" parent="1" vertex="1">
          <mxGeometry x="-1408.99" y="-2673.25" width="17" height="17" as="geometry" />
        </mxCell>
        <mxCell id="dWQ8O_4r9y9YvBFa44wk-147" value="" style="ellipse;whiteSpace=wrap;html=1;aspect=fixed;fontSize=14;" parent="1" vertex="1">
          <mxGeometry x="-1513.01" y="-2724.25" width="17" height="17" as="geometry" />
        </mxCell>
        <mxCell id="dWQ8O_4r9y9YvBFa44wk-148" value="" style="ellipse;whiteSpace=wrap;html=1;aspect=fixed;fontSize=14;" parent="1" vertex="1">
          <mxGeometry x="-1448" y="-2697.75" width="17" height="17" as="geometry" />
        </mxCell>
        <mxCell id="dWQ8O_4r9y9YvBFa44wk-149" value="" style="ellipse;whiteSpace=wrap;html=1;aspect=fixed;fontSize=14;" parent="1" vertex="1">
          <mxGeometry x="-1423" y="-2697.75" width="17" height="17" as="geometry" />
        </mxCell>
        <mxCell id="dWQ8O_4r9y9YvBFa44wk-150" value="" style="ellipse;whiteSpace=wrap;html=1;aspect=fixed;fontSize=14;" parent="1" vertex="1">
          <mxGeometry x="-1488.51" y="-2724.25" width="17" height="17" as="geometry" />
        </mxCell>
        <mxCell id="dWQ8O_4r9y9YvBFa44wk-151" value="" style="ellipse;whiteSpace=wrap;html=1;aspect=fixed;fontSize=14;" parent="1" vertex="1">
          <mxGeometry x="-1385.75" y="-2697.75" width="17" height="17" as="geometry" />
        </mxCell>
        <mxCell id="dWQ8O_4r9y9YvBFa44wk-152" value="" style="ellipse;whiteSpace=wrap;html=1;aspect=fixed;fontSize=14;" parent="1" vertex="1">
          <mxGeometry x="-1450.63" y="-2724.25" width="17" height="17" as="geometry" />
        </mxCell>
        <mxCell id="dWQ8O_4r9y9YvBFa44wk-153" value="" style="ellipse;whiteSpace=wrap;html=1;aspect=fixed;fontSize=14;" parent="1" vertex="1">
          <mxGeometry x="-1427.88" y="-2724.25" width="17" height="17" as="geometry" />
        </mxCell>
        <mxCell id="dWQ8O_4r9y9YvBFa44wk-154" value="" style="ellipse;whiteSpace=wrap;html=1;aspect=fixed;fontSize=14;" parent="1" vertex="1">
          <mxGeometry x="-1381" y="-2673.25" width="17" height="17" as="geometry" />
        </mxCell>
        <mxCell id="dWQ8O_4r9y9YvBFa44wk-155" value="" style="ellipse;whiteSpace=wrap;html=1;aspect=fixed;fontSize=14;" parent="1" vertex="1">
          <mxGeometry x="-1403.38" y="-2724.25" width="17" height="17" as="geometry" />
        </mxCell>
        <mxCell id="dWQ8O_4r9y9YvBFa44wk-156" value="" style="ellipse;shape=cloud;whiteSpace=wrap;html=1;fontSize=12;" parent="1" vertex="1">
          <mxGeometry x="-1584" y="-2760.75" width="259" height="192" as="geometry" />
        </mxCell>
        <mxCell id="dWQ8O_4r9y9YvBFa44wk-157" value="" style="ellipse;whiteSpace=wrap;html=1;aspect=fixed;fontSize=14;" parent="1" vertex="1">
          <mxGeometry x="-1787.75" y="-2637.75" width="17" height="17" as="geometry" />
        </mxCell>
        <mxCell id="dWQ8O_4r9y9YvBFa44wk-158" value="" style="ellipse;whiteSpace=wrap;html=1;aspect=fixed;fontSize=14;fillColor=#dae8fc;strokeColor=#6c8ebf;" parent="1" vertex="1">
          <mxGeometry x="-1765" y="-2637.75" width="17" height="17" as="geometry" />
        </mxCell>
        <mxCell id="dWQ8O_4r9y9YvBFa44wk-159" value="" style="ellipse;whiteSpace=wrap;html=1;aspect=fixed;fontSize=14;" parent="1" vertex="1">
          <mxGeometry x="-1740.5" y="-2637.75" width="17" height="17" as="geometry" />
        </mxCell>
        <mxCell id="dWQ8O_4r9y9YvBFa44wk-160" value="" style="ellipse;whiteSpace=wrap;html=1;aspect=fixed;fontSize=14;" parent="1" vertex="1">
          <mxGeometry x="-1720.38" y="-2640.75" width="17" height="17" as="geometry" />
        </mxCell>
        <mxCell id="dWQ8O_4r9y9YvBFa44wk-161" value="" style="ellipse;whiteSpace=wrap;html=1;aspect=fixed;fontSize=14;fillColor=#dae8fc;strokeColor=#6c8ebf;" parent="1" vertex="1">
          <mxGeometry x="-1697.63" y="-2640.75" width="17" height="17" as="geometry" />
        </mxCell>
        <mxCell id="dWQ8O_4r9y9YvBFa44wk-162" value="" style="ellipse;whiteSpace=wrap;html=1;aspect=fixed;fontSize=14;" parent="1" vertex="1">
          <mxGeometry x="-1673.13" y="-2640.75" width="17" height="17" as="geometry" />
        </mxCell>
        <mxCell id="dWQ8O_4r9y9YvBFa44wk-163" value="" style="ellipse;whiteSpace=wrap;html=1;aspect=fixed;fontSize=14;" parent="1" vertex="1">
          <mxGeometry x="-1641.5" y="-2640.75" width="17" height="17" as="geometry" />
        </mxCell>
        <mxCell id="dWQ8O_4r9y9YvBFa44wk-164" value="" style="ellipse;whiteSpace=wrap;html=1;aspect=fixed;fontSize=14;" parent="1" vertex="1">
          <mxGeometry x="-1807.26" y="-2664.25" width="17" height="17" as="geometry" />
        </mxCell>
        <mxCell id="dWQ8O_4r9y9YvBFa44wk-165" value="" style="ellipse;whiteSpace=wrap;html=1;aspect=fixed;fontSize=14;" parent="1" vertex="1">
          <mxGeometry x="-1782.76" y="-2664.25" width="17" height="17" as="geometry" />
        </mxCell>
        <mxCell id="dWQ8O_4r9y9YvBFa44wk-166" value="" style="ellipse;whiteSpace=wrap;html=1;aspect=fixed;fontSize=14;" parent="1" vertex="1">
          <mxGeometry x="-1758.98" y="-2668.75" width="17" height="17" as="geometry" />
        </mxCell>
        <mxCell id="dWQ8O_4r9y9YvBFa44wk-167" value="" style="ellipse;whiteSpace=wrap;html=1;aspect=fixed;fontSize=14;fillColor=#dae8fc;strokeColor=#6c8ebf;" parent="1" vertex="1">
          <mxGeometry x="-1736.23" y="-2668.75" width="17" height="17" as="geometry" />
        </mxCell>
        <mxCell id="dWQ8O_4r9y9YvBFa44wk-168" value="" style="ellipse;whiteSpace=wrap;html=1;aspect=fixed;fontSize=14;" parent="1" vertex="1">
          <mxGeometry x="-1782.99" y="-2693.25" width="17" height="17" as="geometry" />
        </mxCell>
        <mxCell id="dWQ8O_4r9y9YvBFa44wk-169" value="" style="ellipse;whiteSpace=wrap;html=1;aspect=fixed;fontSize=14;" parent="1" vertex="1">
          <mxGeometry x="-1760.24" y="-2693.25" width="17" height="17" as="geometry" />
        </mxCell>
        <mxCell id="dWQ8O_4r9y9YvBFa44wk-170" value="" style="ellipse;whiteSpace=wrap;html=1;aspect=fixed;fontSize=14;" parent="1" vertex="1">
          <mxGeometry x="-1711.73" y="-2668.75" width="17" height="17" as="geometry" />
        </mxCell>
        <mxCell id="dWQ8O_4r9y9YvBFa44wk-171" value="" style="ellipse;whiteSpace=wrap;html=1;aspect=fixed;fontSize=14;" parent="1" vertex="1">
          <mxGeometry x="-1735.74" y="-2693.25" width="17" height="17" as="geometry" />
        </mxCell>
        <mxCell id="dWQ8O_4r9y9YvBFa44wk-172" value="" style="ellipse;whiteSpace=wrap;html=1;aspect=fixed;fontSize=14;fillColor=#dae8fc;strokeColor=#6c8ebf;" parent="1" vertex="1">
          <mxGeometry x="-1671.99" y="-2668.75" width="17" height="17" as="geometry" />
        </mxCell>
        <mxCell id="dWQ8O_4r9y9YvBFa44wk-173" value="" style="ellipse;whiteSpace=wrap;html=1;aspect=fixed;fontSize=14;" parent="1" vertex="1">
          <mxGeometry x="-1776.01" y="-2719.75" width="17" height="17" as="geometry" />
        </mxCell>
        <mxCell id="dWQ8O_4r9y9YvBFa44wk-174" value="" style="ellipse;whiteSpace=wrap;html=1;aspect=fixed;fontSize=14;" parent="1" vertex="1">
          <mxGeometry x="-1711" y="-2693.25" width="17" height="17" as="geometry" />
        </mxCell>
        <mxCell id="dWQ8O_4r9y9YvBFa44wk-175" value="" style="ellipse;whiteSpace=wrap;html=1;aspect=fixed;fontSize=14;" parent="1" vertex="1">
          <mxGeometry x="-1686" y="-2693.25" width="17" height="17" as="geometry" />
        </mxCell>
        <mxCell id="dWQ8O_4r9y9YvBFa44wk-176" value="" style="ellipse;whiteSpace=wrap;html=1;aspect=fixed;fontSize=14;fillColor=#dae8fc;strokeColor=#6c8ebf;" parent="1" vertex="1">
          <mxGeometry x="-1751.51" y="-2719.75" width="17" height="17" as="geometry" />
        </mxCell>
        <mxCell id="dWQ8O_4r9y9YvBFa44wk-177" value="" style="ellipse;whiteSpace=wrap;html=1;aspect=fixed;fontSize=14;" parent="1" vertex="1">
          <mxGeometry x="-1648.75" y="-2693.25" width="17" height="17" as="geometry" />
        </mxCell>
        <mxCell id="dWQ8O_4r9y9YvBFa44wk-178" value="" style="ellipse;whiteSpace=wrap;html=1;aspect=fixed;fontSize=14;" parent="1" vertex="1">
          <mxGeometry x="-1713.63" y="-2719.75" width="17" height="17" as="geometry" />
        </mxCell>
        <mxCell id="dWQ8O_4r9y9YvBFa44wk-179" value="" style="ellipse;whiteSpace=wrap;html=1;aspect=fixed;fontSize=14;" parent="1" vertex="1">
          <mxGeometry x="-1690.88" y="-2719.75" width="17" height="17" as="geometry" />
        </mxCell>
        <mxCell id="dWQ8O_4r9y9YvBFa44wk-180" value="" style="ellipse;whiteSpace=wrap;html=1;aspect=fixed;fontSize=14;" parent="1" vertex="1">
          <mxGeometry x="-1644" y="-2668.75" width="17" height="17" as="geometry" />
        </mxCell>
        <mxCell id="dWQ8O_4r9y9YvBFa44wk-181" value="" style="ellipse;whiteSpace=wrap;html=1;aspect=fixed;fontSize=14;fillColor=#dae8fc;strokeColor=#6c8ebf;" parent="1" vertex="1">
          <mxGeometry x="-1666.38" y="-2719.75" width="17" height="17" as="geometry" />
        </mxCell>
        <mxCell id="dWQ8O_4r9y9YvBFa44wk-182" value="" style="ellipse;shape=cloud;whiteSpace=wrap;html=1;fontSize=12;" parent="1" vertex="1">
          <mxGeometry x="-1847" y="-2756.25" width="259" height="192" as="geometry" />
        </mxCell>
        <mxCell id="dWQ8O_4r9y9YvBFa44wk-183" value="" style="ellipse;whiteSpace=wrap;html=1;aspect=fixed;fontSize=14;" parent="1" vertex="1">
          <mxGeometry x="-1514.75" y="-2632.25" width="17" height="17" as="geometry" />
        </mxCell>
        <mxCell id="dWQ8O_4r9y9YvBFa44wk-184" value="" style="ellipse;whiteSpace=wrap;html=1;aspect=fixed;fontSize=14;fillColor=#d5e8d4;strokeColor=#82b366;" parent="1" vertex="1">
          <mxGeometry x="-1492" y="-2632.25" width="17" height="17" as="geometry" />
        </mxCell>
        <mxCell id="dWQ8O_4r9y9YvBFa44wk-185" value="" style="ellipse;whiteSpace=wrap;html=1;aspect=fixed;fontSize=14;" parent="1" vertex="1">
          <mxGeometry x="-1467.5" y="-2632.25" width="17" height="17" as="geometry" />
        </mxCell>
        <mxCell id="dWQ8O_4r9y9YvBFa44wk-186" value="" style="ellipse;whiteSpace=wrap;html=1;aspect=fixed;fontSize=14;" parent="1" vertex="1">
          <mxGeometry x="-1447.38" y="-2635.25" width="17" height="17" as="geometry" />
        </mxCell>
        <mxCell id="dWQ8O_4r9y9YvBFa44wk-187" value="" style="ellipse;whiteSpace=wrap;html=1;aspect=fixed;fontSize=14;" parent="1" vertex="1">
          <mxGeometry x="-1424.63" y="-2635.25" width="17" height="17" as="geometry" />
        </mxCell>
        <mxCell id="dWQ8O_4r9y9YvBFa44wk-188" value="" style="ellipse;whiteSpace=wrap;html=1;aspect=fixed;fontSize=14;fillColor=#d5e8d4;strokeColor=#82b366;" parent="1" vertex="1">
          <mxGeometry x="-1400.13" y="-2635.25" width="17" height="17" as="geometry" />
        </mxCell>
        <mxCell id="dWQ8O_4r9y9YvBFa44wk-189" value="" style="ellipse;whiteSpace=wrap;html=1;aspect=fixed;fontSize=14;" parent="1" vertex="1">
          <mxGeometry x="-1368.5" y="-2635.25" width="17" height="17" as="geometry" />
        </mxCell>
        <mxCell id="dWQ8O_4r9y9YvBFa44wk-190" value="" style="ellipse;whiteSpace=wrap;html=1;aspect=fixed;fontSize=14;" parent="1" vertex="1">
          <mxGeometry x="-1534.26" y="-2658.75" width="17" height="17" as="geometry" />
        </mxCell>
        <mxCell id="dWQ8O_4r9y9YvBFa44wk-191" value="" style="ellipse;whiteSpace=wrap;html=1;aspect=fixed;fontSize=14;" parent="1" vertex="1">
          <mxGeometry x="-1509.76" y="-2658.75" width="17" height="17" as="geometry" />
        </mxCell>
        <mxCell id="dWQ8O_4r9y9YvBFa44wk-192" value="" style="ellipse;whiteSpace=wrap;html=1;aspect=fixed;fontSize=14;" parent="1" vertex="1">
          <mxGeometry x="-1485.98" y="-2663.25" width="17" height="17" as="geometry" />
        </mxCell>
        <mxCell id="dWQ8O_4r9y9YvBFa44wk-193" value="" style="ellipse;whiteSpace=wrap;html=1;aspect=fixed;fontSize=14;fillColor=#d5e8d4;strokeColor=#82b366;" parent="1" vertex="1">
          <mxGeometry x="-1463.23" y="-2663.25" width="17" height="17" as="geometry" />
        </mxCell>
        <mxCell id="dWQ8O_4r9y9YvBFa44wk-194" value="" style="ellipse;whiteSpace=wrap;html=1;aspect=fixed;fontSize=14;" parent="1" vertex="1">
          <mxGeometry x="-1509.99" y="-2687.75" width="17" height="17" as="geometry" />
        </mxCell>
        <mxCell id="dWQ8O_4r9y9YvBFa44wk-195" value="" style="ellipse;whiteSpace=wrap;html=1;aspect=fixed;fontSize=14;" parent="1" vertex="1">
          <mxGeometry x="-1487.24" y="-2687.75" width="17" height="17" as="geometry" />
        </mxCell>
        <mxCell id="dWQ8O_4r9y9YvBFa44wk-196" value="" style="ellipse;whiteSpace=wrap;html=1;aspect=fixed;fontSize=14;" parent="1" vertex="1">
          <mxGeometry x="-1438.73" y="-2663.25" width="17" height="17" as="geometry" />
        </mxCell>
        <mxCell id="dWQ8O_4r9y9YvBFa44wk-197" value="" style="ellipse;whiteSpace=wrap;html=1;aspect=fixed;fontSize=14;" parent="1" vertex="1">
          <mxGeometry x="-1462.74" y="-2687.75" width="17" height="17" as="geometry" />
        </mxCell>
        <mxCell id="dWQ8O_4r9y9YvBFa44wk-198" value="" style="ellipse;whiteSpace=wrap;html=1;aspect=fixed;fontSize=14;" parent="1" vertex="1">
          <mxGeometry x="-1398.99" y="-2663.25" width="17" height="17" as="geometry" />
        </mxCell>
        <mxCell id="dWQ8O_4r9y9YvBFa44wk-199" value="" style="ellipse;whiteSpace=wrap;html=1;aspect=fixed;fontSize=14;" parent="1" vertex="1">
          <mxGeometry x="-1503.01" y="-2714.25" width="17" height="17" as="geometry" />
        </mxCell>
        <mxCell id="dWQ8O_4r9y9YvBFa44wk-200" value="" style="ellipse;whiteSpace=wrap;html=1;aspect=fixed;fontSize=14;" parent="1" vertex="1">
          <mxGeometry x="-1438" y="-2687.75" width="17" height="17" as="geometry" />
        </mxCell>
        <mxCell id="dWQ8O_4r9y9YvBFa44wk-201" value="" style="ellipse;whiteSpace=wrap;html=1;aspect=fixed;fontSize=14;fillColor=#d5e8d4;strokeColor=#82b366;" parent="1" vertex="1">
          <mxGeometry x="-1413" y="-2687.75" width="17" height="17" as="geometry" />
        </mxCell>
        <mxCell id="dWQ8O_4r9y9YvBFa44wk-202" value="" style="ellipse;whiteSpace=wrap;html=1;aspect=fixed;fontSize=14;fillColor=#d5e8d4;strokeColor=#82b366;" parent="1" vertex="1">
          <mxGeometry x="-1478.51" y="-2714.25" width="17" height="17" as="geometry" />
        </mxCell>
        <mxCell id="dWQ8O_4r9y9YvBFa44wk-203" value="" style="ellipse;whiteSpace=wrap;html=1;aspect=fixed;fontSize=14;" parent="1" vertex="1">
          <mxGeometry x="-1375.75" y="-2687.75" width="17" height="17" as="geometry" />
        </mxCell>
        <mxCell id="dWQ8O_4r9y9YvBFa44wk-204" value="" style="ellipse;whiteSpace=wrap;html=1;aspect=fixed;fontSize=14;" parent="1" vertex="1">
          <mxGeometry x="-1440.63" y="-2714.25" width="17" height="17" as="geometry" />
        </mxCell>
        <mxCell id="dWQ8O_4r9y9YvBFa44wk-205" value="" style="ellipse;whiteSpace=wrap;html=1;aspect=fixed;fontSize=14;" parent="1" vertex="1">
          <mxGeometry x="-1417.88" y="-2714.25" width="17" height="17" as="geometry" />
        </mxCell>
        <mxCell id="dWQ8O_4r9y9YvBFa44wk-206" value="" style="ellipse;whiteSpace=wrap;html=1;aspect=fixed;fontSize=14;" parent="1" vertex="1">
          <mxGeometry x="-1371" y="-2663.25" width="17" height="17" as="geometry" />
        </mxCell>
        <mxCell id="dWQ8O_4r9y9YvBFa44wk-207" value="" style="ellipse;whiteSpace=wrap;html=1;aspect=fixed;fontSize=14;" parent="1" vertex="1">
          <mxGeometry x="-1393.38" y="-2714.25" width="17" height="17" as="geometry" />
        </mxCell>
        <mxCell id="dWQ8O_4r9y9YvBFa44wk-208" value="" style="ellipse;whiteSpace=wrap;html=1;aspect=fixed;fontSize=14;" parent="1" vertex="1">
          <mxGeometry x="-1777.75" y="-2627.75" width="17" height="17" as="geometry" />
        </mxCell>
        <mxCell id="dWQ8O_4r9y9YvBFa44wk-209" value="" style="ellipse;whiteSpace=wrap;html=1;aspect=fixed;fontSize=14;fillColor=#dae8fc;strokeColor=#6c8ebf;" parent="1" vertex="1">
          <mxGeometry x="-1755" y="-2627.75" width="17" height="17" as="geometry" />
        </mxCell>
        <mxCell id="dWQ8O_4r9y9YvBFa44wk-210" value="" style="ellipse;whiteSpace=wrap;html=1;aspect=fixed;fontSize=14;" parent="1" vertex="1">
          <mxGeometry x="-1730.5" y="-2627.75" width="17" height="17" as="geometry" />
        </mxCell>
        <mxCell id="dWQ8O_4r9y9YvBFa44wk-211" value="" style="ellipse;whiteSpace=wrap;html=1;aspect=fixed;fontSize=14;" parent="1" vertex="1">
          <mxGeometry x="-1710.38" y="-2630.75" width="17" height="17" as="geometry" />
        </mxCell>
        <mxCell id="dWQ8O_4r9y9YvBFa44wk-212" value="" style="ellipse;whiteSpace=wrap;html=1;aspect=fixed;fontSize=14;fillColor=#dae8fc;strokeColor=#6c8ebf;" parent="1" vertex="1">
          <mxGeometry x="-1687.63" y="-2630.75" width="17" height="17" as="geometry" />
        </mxCell>
        <mxCell id="dWQ8O_4r9y9YvBFa44wk-213" value="" style="ellipse;whiteSpace=wrap;html=1;aspect=fixed;fontSize=14;" parent="1" vertex="1">
          <mxGeometry x="-1663.13" y="-2630.75" width="17" height="17" as="geometry" />
        </mxCell>
        <mxCell id="dWQ8O_4r9y9YvBFa44wk-214" value="" style="ellipse;whiteSpace=wrap;html=1;aspect=fixed;fontSize=14;" parent="1" vertex="1">
          <mxGeometry x="-1631.5" y="-2630.75" width="17" height="17" as="geometry" />
        </mxCell>
        <mxCell id="dWQ8O_4r9y9YvBFa44wk-215" value="" style="ellipse;whiteSpace=wrap;html=1;aspect=fixed;fontSize=14;" parent="1" vertex="1">
          <mxGeometry x="-1797.26" y="-2654.25" width="17" height="17" as="geometry" />
        </mxCell>
        <mxCell id="dWQ8O_4r9y9YvBFa44wk-216" value="" style="ellipse;whiteSpace=wrap;html=1;aspect=fixed;fontSize=14;" parent="1" vertex="1">
          <mxGeometry x="-1772.76" y="-2654.25" width="17" height="17" as="geometry" />
        </mxCell>
        <mxCell id="dWQ8O_4r9y9YvBFa44wk-217" value="" style="ellipse;whiteSpace=wrap;html=1;aspect=fixed;fontSize=14;" parent="1" vertex="1">
          <mxGeometry x="-1748.98" y="-2658.75" width="17" height="17" as="geometry" />
        </mxCell>
        <mxCell id="dWQ8O_4r9y9YvBFa44wk-218" value="" style="ellipse;whiteSpace=wrap;html=1;aspect=fixed;fontSize=14;fillColor=#dae8fc;strokeColor=#6c8ebf;" parent="1" vertex="1">
          <mxGeometry x="-1726.23" y="-2658.75" width="17" height="17" as="geometry" />
        </mxCell>
        <mxCell id="dWQ8O_4r9y9YvBFa44wk-219" value="" style="ellipse;whiteSpace=wrap;html=1;aspect=fixed;fontSize=14;" parent="1" vertex="1">
          <mxGeometry x="-1772.99" y="-2683.25" width="17" height="17" as="geometry" />
        </mxCell>
        <mxCell id="dWQ8O_4r9y9YvBFa44wk-220" value="" style="ellipse;whiteSpace=wrap;html=1;aspect=fixed;fontSize=14;" parent="1" vertex="1">
          <mxGeometry x="-1750.24" y="-2683.25" width="17" height="17" as="geometry" />
        </mxCell>
        <mxCell id="dWQ8O_4r9y9YvBFa44wk-221" value="" style="ellipse;whiteSpace=wrap;html=1;aspect=fixed;fontSize=14;" parent="1" vertex="1">
          <mxGeometry x="-1701.73" y="-2658.75" width="17" height="17" as="geometry" />
        </mxCell>
        <mxCell id="dWQ8O_4r9y9YvBFa44wk-222" value="" style="ellipse;whiteSpace=wrap;html=1;aspect=fixed;fontSize=14;" parent="1" vertex="1">
          <mxGeometry x="-1725.74" y="-2683.25" width="17" height="17" as="geometry" />
        </mxCell>
        <mxCell id="dWQ8O_4r9y9YvBFa44wk-223" value="" style="ellipse;whiteSpace=wrap;html=1;aspect=fixed;fontSize=14;fillColor=#dae8fc;strokeColor=#6c8ebf;" parent="1" vertex="1">
          <mxGeometry x="-1661.99" y="-2658.75" width="17" height="17" as="geometry" />
        </mxCell>
        <mxCell id="dWQ8O_4r9y9YvBFa44wk-224" value="" style="ellipse;whiteSpace=wrap;html=1;aspect=fixed;fontSize=14;" parent="1" vertex="1">
          <mxGeometry x="-1766.01" y="-2709.75" width="17" height="17" as="geometry" />
        </mxCell>
        <mxCell id="dWQ8O_4r9y9YvBFa44wk-225" value="" style="ellipse;whiteSpace=wrap;html=1;aspect=fixed;fontSize=14;" parent="1" vertex="1">
          <mxGeometry x="-1701" y="-2683.25" width="17" height="17" as="geometry" />
        </mxCell>
        <mxCell id="dWQ8O_4r9y9YvBFa44wk-226" value="" style="ellipse;whiteSpace=wrap;html=1;aspect=fixed;fontSize=14;" parent="1" vertex="1">
          <mxGeometry x="-1676" y="-2683.25" width="17" height="17" as="geometry" />
        </mxCell>
        <mxCell id="dWQ8O_4r9y9YvBFa44wk-227" value="" style="ellipse;whiteSpace=wrap;html=1;aspect=fixed;fontSize=14;fillColor=#dae8fc;strokeColor=#6c8ebf;" parent="1" vertex="1">
          <mxGeometry x="-1741.51" y="-2709.75" width="17" height="17" as="geometry" />
        </mxCell>
        <mxCell id="dWQ8O_4r9y9YvBFa44wk-228" value="" style="ellipse;whiteSpace=wrap;html=1;aspect=fixed;fontSize=14;" parent="1" vertex="1">
          <mxGeometry x="-1638.75" y="-2683.25" width="17" height="17" as="geometry" />
        </mxCell>
        <mxCell id="dWQ8O_4r9y9YvBFa44wk-229" value="" style="ellipse;whiteSpace=wrap;html=1;aspect=fixed;fontSize=14;" parent="1" vertex="1">
          <mxGeometry x="-1703.63" y="-2709.75" width="17" height="17" as="geometry" />
        </mxCell>
        <mxCell id="dWQ8O_4r9y9YvBFa44wk-230" value="" style="ellipse;whiteSpace=wrap;html=1;aspect=fixed;fontSize=14;" parent="1" vertex="1">
          <mxGeometry x="-1680.88" y="-2709.75" width="17" height="17" as="geometry" />
        </mxCell>
        <mxCell id="dWQ8O_4r9y9YvBFa44wk-231" value="" style="ellipse;whiteSpace=wrap;html=1;aspect=fixed;fontSize=14;" parent="1" vertex="1">
          <mxGeometry x="-1634" y="-2658.75" width="17" height="17" as="geometry" />
        </mxCell>
        <mxCell id="dWQ8O_4r9y9YvBFa44wk-232" value="" style="ellipse;whiteSpace=wrap;html=1;aspect=fixed;fontSize=14;fillColor=#dae8fc;strokeColor=#6c8ebf;" parent="1" vertex="1">
          <mxGeometry x="-1656.38" y="-2709.75" width="17" height="17" as="geometry" />
        </mxCell>
        <mxCell id="dWQ8O_4r9y9YvBFa44wk-233" value="" style="ellipse;whiteSpace=wrap;html=1;aspect=fixed;fillColor=#dae8fc;strokeColor=#6c8ebf;" parent="1" vertex="1">
          <mxGeometry x="-1240.7399999999998" y="-2271.75" width="12" height="12" as="geometry" />
        </mxCell>
        <mxCell id="dWQ8O_4r9y9YvBFa44wk-234" style="edgeStyle=none;rounded=0;orthogonalLoop=1;jettySize=auto;html=1;entryX=1;entryY=1;entryDx=0;entryDy=0;endArrow=none;endFill=0;strokeColor=#000000;fillColor=#dae8fc;" parent="1" source="dWQ8O_4r9y9YvBFa44wk-235" target="dWQ8O_4r9y9YvBFa44wk-233" edge="1">
          <mxGeometry relative="1" as="geometry" />
        </mxCell>
        <mxCell id="dWQ8O_4r9y9YvBFa44wk-235" value="" style="ellipse;whiteSpace=wrap;html=1;aspect=fixed;fillColor=#f8cecc;strokeColor=#000000;" parent="1" vertex="1">
          <mxGeometry x="-1221.7399999999998" y="-2232.75" width="12" height="12" as="geometry" />
        </mxCell>
        <mxCell id="dWQ8O_4r9y9YvBFa44wk-236" style="edgeStyle=none;rounded=0;orthogonalLoop=1;jettySize=auto;html=1;entryX=0;entryY=1;entryDx=0;entryDy=0;endArrow=none;endFill=0;strokeColor=#000000;fillColor=#dae8fc;" parent="1" source="dWQ8O_4r9y9YvBFa44wk-237" target="dWQ8O_4r9y9YvBFa44wk-235" edge="1">
          <mxGeometry relative="1" as="geometry" />
        </mxCell>
        <mxCell id="dWQ8O_4r9y9YvBFa44wk-237" value="" style="ellipse;whiteSpace=wrap;html=1;aspect=fixed;fillColor=#dae8fc;strokeColor=#000000;" parent="1" vertex="1">
          <mxGeometry x="-1257.7399999999998" y="-2199.75" width="12" height="12" as="geometry" />
        </mxCell>
        <mxCell id="dWQ8O_4r9y9YvBFa44wk-238" style="edgeStyle=none;rounded=0;orthogonalLoop=1;jettySize=auto;html=1;entryX=0;entryY=0.5;entryDx=0;entryDy=0;endArrow=none;endFill=0;strokeColor=#000000;fillColor=#dae8fc;" parent="1" source="dWQ8O_4r9y9YvBFa44wk-240" target="dWQ8O_4r9y9YvBFa44wk-237" edge="1">
          <mxGeometry relative="1" as="geometry" />
        </mxCell>
        <mxCell id="dWQ8O_4r9y9YvBFa44wk-239" style="edgeStyle=none;rounded=0;orthogonalLoop=1;jettySize=auto;html=1;entryX=0;entryY=1;entryDx=0;entryDy=0;endArrow=none;endFill=0;strokeColor=#000000;fillColor=#dae8fc;" parent="1" source="dWQ8O_4r9y9YvBFa44wk-240" target="dWQ8O_4r9y9YvBFa44wk-252" edge="1">
          <mxGeometry relative="1" as="geometry" />
        </mxCell>
        <mxCell id="dWQ8O_4r9y9YvBFa44wk-240" value="" style="ellipse;whiteSpace=wrap;html=1;aspect=fixed;fillColor=#ffe6cc;strokeColor=#d79b00;" parent="1" vertex="1">
          <mxGeometry x="-1355.7399999999998" y="-2199.75" width="12" height="12" as="geometry" />
        </mxCell>
        <mxCell id="dWQ8O_4r9y9YvBFa44wk-241" style="edgeStyle=none;rounded=0;orthogonalLoop=1;jettySize=auto;html=1;entryX=0;entryY=1;entryDx=0;entryDy=0;endArrow=none;endFill=0;strokeColor=#000000;fillColor=#dae8fc;" parent="1" source="dWQ8O_4r9y9YvBFa44wk-244" target="dWQ8O_4r9y9YvBFa44wk-233" edge="1">
          <mxGeometry relative="1" as="geometry" />
        </mxCell>
        <mxCell id="dWQ8O_4r9y9YvBFa44wk-242" style="edgeStyle=none;rounded=0;orthogonalLoop=1;jettySize=auto;html=1;entryX=0;entryY=0;entryDx=0;entryDy=0;endArrow=none;endFill=0;strokeColor=#000000;fillColor=#dae8fc;" parent="1" source="dWQ8O_4r9y9YvBFa44wk-244" target="dWQ8O_4r9y9YvBFa44wk-252" edge="1">
          <mxGeometry relative="1" as="geometry" />
        </mxCell>
        <mxCell id="dWQ8O_4r9y9YvBFa44wk-243" value="" style="edgeStyle=none;rounded=0;orthogonalLoop=1;jettySize=auto;html=1;endArrow=none;endFill=0;strokeColor=#000000;fillColor=#dae8fc;" parent="1" source="dWQ8O_4r9y9YvBFa44wk-244" target="dWQ8O_4r9y9YvBFa44wk-240" edge="1">
          <mxGeometry relative="1" as="geometry" />
        </mxCell>
        <mxCell id="dWQ8O_4r9y9YvBFa44wk-244" value="" style="ellipse;whiteSpace=wrap;html=1;aspect=fixed;fillColor=#fff2cc;strokeColor=#d6b656;" parent="1" vertex="1">
          <mxGeometry x="-1319.9899999999998" y="-2259.75" width="12" height="12" as="geometry" />
        </mxCell>
        <mxCell id="dWQ8O_4r9y9YvBFa44wk-245" style="edgeStyle=none;rounded=0;orthogonalLoop=1;jettySize=auto;html=1;entryX=1;entryY=0;entryDx=0;entryDy=0;endArrow=none;endFill=0;strokeColor=#000000;fillColor=#dae8fc;" parent="1" source="dWQ8O_4r9y9YvBFa44wk-247" target="dWQ8O_4r9y9YvBFa44wk-249" edge="1">
          <mxGeometry relative="1" as="geometry" />
        </mxCell>
        <mxCell id="dWQ8O_4r9y9YvBFa44wk-246" style="edgeStyle=none;rounded=0;orthogonalLoop=1;jettySize=auto;html=1;exitX=0;exitY=0.5;exitDx=0;exitDy=0;entryX=0;entryY=0.5;entryDx=0;entryDy=0;endArrow=none;endFill=0;strokeColor=#000000;fillColor=#dae8fc;" parent="1" source="dWQ8O_4r9y9YvBFa44wk-247" target="dWQ8O_4r9y9YvBFa44wk-244" edge="1">
          <mxGeometry relative="1" as="geometry" />
        </mxCell>
        <mxCell id="dWQ8O_4r9y9YvBFa44wk-247" value="" style="ellipse;whiteSpace=wrap;html=1;aspect=fixed;fillColor=#dae8fc;strokeColor=#000000;" parent="1" vertex="1">
          <mxGeometry x="-1397.7399999999998" y="-2252.25" width="12" height="12" as="geometry" />
        </mxCell>
        <mxCell id="dWQ8O_4r9y9YvBFa44wk-248" style="edgeStyle=none;rounded=0;orthogonalLoop=1;jettySize=auto;html=1;entryX=0;entryY=0.5;entryDx=0;entryDy=0;endArrow=none;endFill=0;strokeColor=#000000;fillColor=#dae8fc;" parent="1" source="dWQ8O_4r9y9YvBFa44wk-249" target="dWQ8O_4r9y9YvBFa44wk-240" edge="1">
          <mxGeometry relative="1" as="geometry" />
        </mxCell>
        <mxCell id="dWQ8O_4r9y9YvBFa44wk-249" value="" style="ellipse;whiteSpace=wrap;html=1;aspect=fixed;fillColor=#dae8fc;strokeColor=#000000;" parent="1" vertex="1">
          <mxGeometry x="-1409.7399999999998" y="-2187.75" width="12" height="12" as="geometry" />
        </mxCell>
        <mxCell id="dWQ8O_4r9y9YvBFa44wk-250" value="" style="edgeStyle=none;rounded=0;orthogonalLoop=1;jettySize=auto;html=1;endArrow=none;endFill=0;strokeColor=#000000;fillColor=#dae8fc;" parent="1" source="dWQ8O_4r9y9YvBFa44wk-252" target="dWQ8O_4r9y9YvBFa44wk-235" edge="1">
          <mxGeometry relative="1" as="geometry" />
        </mxCell>
        <mxCell id="dWQ8O_4r9y9YvBFa44wk-251" style="edgeStyle=none;rounded=0;orthogonalLoop=1;jettySize=auto;html=1;endArrow=none;endFill=0;strokeColor=#000000;fillColor=#dae8fc;" parent="1" source="dWQ8O_4r9y9YvBFa44wk-252" edge="1">
          <mxGeometry relative="1" as="geometry">
            <mxPoint x="-1259.8837629250916" y="-2197.4656623391543" as="targetPoint" />
          </mxGeometry>
        </mxCell>
        <mxCell id="dWQ8O_4r9y9YvBFa44wk-252" value="" style="ellipse;whiteSpace=wrap;html=1;aspect=fixed;fillColor=#dae8fc;strokeColor=#000000;" parent="1" vertex="1">
          <mxGeometry x="-1290.7399999999998" y="-2225.75" width="12" height="12" as="geometry" />
        </mxCell>
        <mxCell id="dWQ8O_4r9y9YvBFa44wk-253" style="edgeStyle=none;rounded=0;orthogonalLoop=1;jettySize=auto;html=1;entryX=0;entryY=1;entryDx=0;entryDy=0;endArrow=none;endFill=0;strokeColor=#000000;fillColor=#dae8fc;" parent="1" source="dWQ8O_4r9y9YvBFa44wk-254" target="dWQ8O_4r9y9YvBFa44wk-263" edge="1">
          <mxGeometry relative="1" as="geometry" />
        </mxCell>
        <mxCell id="dWQ8O_4r9y9YvBFa44wk-254" value="" style="ellipse;whiteSpace=wrap;html=1;aspect=fixed;fillColor=#f8cecc;strokeColor=#b85450;" parent="1" vertex="1">
          <mxGeometry x="-1297.0899999999997" y="-2290.25" width="12" height="12" as="geometry" />
        </mxCell>
        <mxCell id="dWQ8O_4r9y9YvBFa44wk-255" style="edgeStyle=none;rounded=0;orthogonalLoop=1;jettySize=auto;html=1;entryX=0;entryY=0;entryDx=0;entryDy=0;endArrow=none;endFill=0;strokeColor=#000000;fillColor=#dae8fc;" parent="1" source="dWQ8O_4r9y9YvBFa44wk-257" target="dWQ8O_4r9y9YvBFa44wk-263" edge="1">
          <mxGeometry relative="1" as="geometry" />
        </mxCell>
        <mxCell id="dWQ8O_4r9y9YvBFa44wk-256" value="" style="edgeStyle=none;rounded=0;orthogonalLoop=1;jettySize=auto;html=1;endArrow=none;endFill=0;strokeColor=#000000;fillColor=#dae8fc;" parent="1" source="dWQ8O_4r9y9YvBFa44wk-257" target="dWQ8O_4r9y9YvBFa44wk-254" edge="1">
          <mxGeometry relative="1" as="geometry" />
        </mxCell>
        <mxCell id="dWQ8O_4r9y9YvBFa44wk-257" value="" style="ellipse;whiteSpace=wrap;html=1;aspect=fixed;fillColor=#f8cecc;strokeColor=#b85450;" parent="1" vertex="1">
          <mxGeometry x="-1261.3399999999997" y="-2350.25" width="12" height="12" as="geometry" />
        </mxCell>
        <mxCell id="dWQ8O_4r9y9YvBFa44wk-258" style="edgeStyle=none;rounded=0;orthogonalLoop=1;jettySize=auto;html=1;entryX=1;entryY=0;entryDx=0;entryDy=0;endArrow=none;endFill=0;strokeColor=#000000;fillColor=#dae8fc;startArrow=none;exitX=0.5;exitY=0;exitDx=0;exitDy=0;" parent="1" source="dWQ8O_4r9y9YvBFa44wk-247" target="dWQ8O_4r9y9YvBFa44wk-262" edge="1">
          <mxGeometry relative="1" as="geometry">
            <mxPoint x="-1369.409059537346" y="-2259.75" as="sourcePoint" />
          </mxGeometry>
        </mxCell>
        <mxCell id="dWQ8O_4r9y9YvBFa44wk-259" style="edgeStyle=none;rounded=0;orthogonalLoop=1;jettySize=auto;html=1;exitX=0;exitY=0.5;exitDx=0;exitDy=0;entryX=0;entryY=0.5;entryDx=0;entryDy=0;endArrow=none;endFill=0;strokeColor=#000000;fillColor=#dae8fc;" parent="1" source="dWQ8O_4r9y9YvBFa44wk-260" target="dWQ8O_4r9y9YvBFa44wk-257" edge="1">
          <mxGeometry relative="1" as="geometry" />
        </mxCell>
        <mxCell id="dWQ8O_4r9y9YvBFa44wk-260" value="" style="ellipse;whiteSpace=wrap;html=1;aspect=fixed;fillColor=#d5e8d4;strokeColor=#82b366;" parent="1" vertex="1">
          <mxGeometry x="-1339.0899999999997" y="-2342.75" width="12" height="12" as="geometry" />
        </mxCell>
        <mxCell id="dWQ8O_4r9y9YvBFa44wk-261" style="edgeStyle=none;rounded=0;orthogonalLoop=1;jettySize=auto;html=1;entryX=0;entryY=0.5;entryDx=0;entryDy=0;endArrow=none;endFill=0;strokeColor=#000000;fillColor=#dae8fc;" parent="1" source="dWQ8O_4r9y9YvBFa44wk-262" target="dWQ8O_4r9y9YvBFa44wk-254" edge="1">
          <mxGeometry relative="1" as="geometry" />
        </mxCell>
        <mxCell id="dWQ8O_4r9y9YvBFa44wk-262" value="" style="ellipse;whiteSpace=wrap;html=1;aspect=fixed;fillColor=#dae8fc;strokeColor=#000000;" parent="1" vertex="1">
          <mxGeometry x="-1351.0899999999997" y="-2278.25" width="12" height="12" as="geometry" />
        </mxCell>
        <mxCell id="dWQ8O_4r9y9YvBFa44wk-263" value="" style="ellipse;whiteSpace=wrap;html=1;aspect=fixed;fillColor=#dae8fc;strokeColor=#000000;" parent="1" vertex="1">
          <mxGeometry x="-1232.0899999999997" y="-2316.25" width="12" height="12" as="geometry" />
        </mxCell>
        <mxCell id="dWQ8O_4r9y9YvBFa44wk-264" value="" style="edgeStyle=none;rounded=0;orthogonalLoop=1;jettySize=auto;html=1;endArrow=none;endFill=0;strokeColor=#000000;fillColor=#dae8fc;" parent="1" source="dWQ8O_4r9y9YvBFa44wk-260" edge="1">
          <mxGeometry relative="1" as="geometry">
            <mxPoint x="-1333.7910474853043" y="-2330.7910963749136" as="sourcePoint" />
            <mxPoint x="-1342.4999999999995" y="-2279.25" as="targetPoint" />
          </mxGeometry>
        </mxCell>
        <mxCell id="dWQ8O_4r9y9YvBFa44wk-265" value="" style="endArrow=none;html=1;rounded=0;fontSize=12;exitX=0.5;exitY=0;exitDx=0;exitDy=0;entryX=0.5;entryY=1;entryDx=0;entryDy=0;strokeColor=#000000;" parent="1" source="dWQ8O_4r9y9YvBFa44wk-233" target="dWQ8O_4r9y9YvBFa44wk-263" edge="1">
          <mxGeometry width="50" height="50" relative="1" as="geometry">
            <mxPoint x="-1238.5" y="-2276.25" as="sourcePoint" />
            <mxPoint x="-1276.5" y="-2360.25" as="targetPoint" />
          </mxGeometry>
        </mxCell>
        <mxCell id="dWQ8O_4r9y9YvBFa44wk-266" style="edgeStyle=orthogonalEdgeStyle;rounded=0;orthogonalLoop=1;jettySize=auto;html=1;exitX=0;exitY=0.5;exitDx=0;exitDy=0;entryX=0;entryY=0;entryDx=0;entryDy=0;fontSize=12;strokeColor=#82b366;fillColor=#d5e8d4;" parent="1" source="dWQ8O_4r9y9YvBFa44wk-249" target="dWQ8O_4r9y9YvBFa44wk-249" edge="1">
          <mxGeometry relative="1" as="geometry" />
        </mxCell>
        <mxCell id="dWQ8O_4r9y9YvBFa44wk-267" value="" style="shape=singleArrow;direction=south;whiteSpace=wrap;html=1;" parent="1" vertex="1">
          <mxGeometry x="-1332.56" y="-2545.5" width="22" height="29.5" as="geometry" />
        </mxCell>
        <mxCell id="dWQ8O_4r9y9YvBFa44wk-268" value="&lt;font style=&quot;font-size: 24px&quot;&gt;全局索引&lt;/font&gt;" style="text;html=1;strokeColor=none;fillColor=none;align=center;verticalAlign=middle;whiteSpace=wrap;rounded=0;fontSize=12;" parent="1" vertex="1">
          <mxGeometry x="-1336.82" y="-2110.75" width="116" height="53" as="geometry" />
        </mxCell>
        <mxCell id="dWQ8O_4r9y9YvBFa44wk-269" value="0" style="text;html=1;strokeColor=none;fillColor=none;align=center;verticalAlign=middle;whiteSpace=wrap;rounded=0;fontSize=11;" parent="1" vertex="1">
          <mxGeometry x="-929.63" y="-2331.5" width="60" height="30" as="geometry" />
        </mxCell>
        <mxCell id="dWQ8O_4r9y9YvBFa44wk-270" value="&lt;font style=&quot;font-size: 22px&quot;&gt;分区0&lt;/font&gt;" style="text;html=1;strokeColor=none;fillColor=none;align=center;verticalAlign=middle;whiteSpace=wrap;rounded=0;" parent="1" vertex="1">
          <mxGeometry x="-1745.38" y="-2810" width="67" height="30" as="geometry" />
        </mxCell>
        <mxCell id="dWQ8O_4r9y9YvBFa44wk-271" value="&lt;font style=&quot;font-size: 22px&quot;&gt;分区1&lt;/font&gt;" style="text;html=1;strokeColor=none;fillColor=none;align=center;verticalAlign=middle;whiteSpace=wrap;rounded=0;" parent="1" vertex="1">
          <mxGeometry x="-1481.92" y="-2810" width="67" height="30" as="geometry" />
        </mxCell>
        <mxCell id="dWQ8O_4r9y9YvBFa44wk-272" value="&lt;font style=&quot;font-size: 22px&quot;&gt;分区2&lt;/font&gt;" style="text;html=1;strokeColor=none;fillColor=none;align=center;verticalAlign=middle;whiteSpace=wrap;rounded=0;" parent="1" vertex="1">
          <mxGeometry x="-1249.73" y="-2810" width="67" height="30" as="geometry" />
        </mxCell>
        <mxCell id="dWQ8O_4r9y9YvBFa44wk-273" value="&lt;font style=&quot;font-size: 22px&quot;&gt;分区3&lt;/font&gt;" style="text;html=1;strokeColor=none;fillColor=none;align=center;verticalAlign=middle;whiteSpace=wrap;rounded=0;" parent="1" vertex="1">
          <mxGeometry x="-973.38" y="-2810" width="67" height="30" as="geometry" />
        </mxCell>
        <mxCell id="dWQ8O_4r9y9YvBFa44wk-322" value="" style="shape=singleArrow;direction=south;whiteSpace=wrap;html=1;" parent="1" vertex="1">
          <mxGeometry x="-1330.04" y="-2425" width="22" height="29.5" as="geometry" />
        </mxCell>
        <mxCell id="dWQ8O_4r9y9YvBFa44wk-324" value="&lt;font style=&quot;font-size: 48px&quot;&gt;数据采样&lt;/font&gt;" style="text;html=1;strokeColor=none;fillColor=none;align=center;verticalAlign=middle;whiteSpace=wrap;rounded=0;" parent="1" vertex="1">
          <mxGeometry x="-1783.92" y="-2492" width="220.02" height="30" as="geometry" />
        </mxCell>
        <mxCell id="dWQ8O_4r9y9YvBFa44wk-326" value="&lt;font style=&quot;font-size: 48px&quot;&gt;构建索引&lt;/font&gt;" style="text;html=1;strokeColor=none;fillColor=none;align=center;verticalAlign=middle;whiteSpace=wrap;rounded=0;" parent="1" vertex="1">
          <mxGeometry x="-1779.6" y="-2277.75" width="211.37" height="30" as="geometry" />
        </mxCell>
        <mxCell id="dWQ8O_4r9y9YvBFa44wk-330" value="" style="rhombus;whiteSpace=wrap;html=1;" parent="1" vertex="1">
          <mxGeometry x="-1102.6799999999998" y="-1526.5" width="63" height="62" as="geometry" />
        </mxCell>
        <mxCell id="dWQ8O_4r9y9YvBFa44wk-331" value="" style="triangle;whiteSpace=wrap;html=1;" parent="1" vertex="1">
          <mxGeometry x="-1484.05" y="-1543.5" width="46" height="55" as="geometry" />
        </mxCell>
        <mxCell id="dWQ8O_4r9y9YvBFa44wk-332" value="" style="ellipse;shape=cloud;whiteSpace=wrap;html=1;" parent="1" vertex="1">
          <mxGeometry x="-1981.57" y="-1597" width="425" height="294" as="geometry" />
        </mxCell>
        <mxCell id="dWQ8O_4r9y9YvBFa44wk-338" value="" style="ellipse;whiteSpace=wrap;html=1;aspect=fixed;" parent="1" vertex="1">
          <mxGeometry x="-1856.57" y="-1533.5" width="50" height="50" as="geometry" />
        </mxCell>
        <mxCell id="dWQ8O_4r9y9YvBFa44wk-339" value="" style="triangle;whiteSpace=wrap;html=1;" parent="1" vertex="1">
          <mxGeometry x="-1417.2" y="-1543.5" width="46" height="55" as="geometry" />
        </mxCell>
        <mxCell id="dWQ8O_4r9y9YvBFa44wk-340" value="" style="triangle;whiteSpace=wrap;html=1;" parent="1" vertex="1">
          <mxGeometry x="-1460.4199999999998" y="-1477.5" width="46" height="55" as="geometry" />
        </mxCell>
        <mxCell id="dWQ8O_4r9y9YvBFa44wk-341" value="" style="triangle;whiteSpace=wrap;html=1;" parent="1" vertex="1">
          <mxGeometry x="-1393.57" y="-1477.5" width="46" height="55" as="geometry" />
        </mxCell>
        <mxCell id="dWQ8O_4r9y9YvBFa44wk-351" value="" style="triangle;whiteSpace=wrap;html=1;" parent="1" vertex="1">
          <mxGeometry x="-1357.3899999999999" y="-1524.5" width="46" height="55" as="geometry" />
        </mxCell>
        <mxCell id="dWQ8O_4r9y9YvBFa44wk-352" value="" style="triangle;whiteSpace=wrap;html=1;" parent="1" vertex="1">
          <mxGeometry x="-1304.55" y="-1495.5" width="46" height="55" as="geometry" />
        </mxCell>
        <mxCell id="dWQ8O_4r9y9YvBFa44wk-353" value="" style="triangle;whiteSpace=wrap;html=1;" parent="1" vertex="1">
          <mxGeometry x="-1430.2499999999998" y="-1422.5" width="46" height="55" as="geometry" />
        </mxCell>
        <mxCell id="dWQ8O_4r9y9YvBFa44wk-354" value="" style="triangle;whiteSpace=wrap;html=1;" parent="1" vertex="1">
          <mxGeometry x="-1339.2599999999998" y="-1430.5" width="46" height="55" as="geometry" />
        </mxCell>
        <mxCell id="dWQ8O_4r9y9YvBFa44wk-356" value="" style="ellipse;whiteSpace=wrap;html=1;aspect=fixed;" parent="1" vertex="1">
          <mxGeometry x="-1787.82" y="-1533.5" width="50" height="50" as="geometry" />
        </mxCell>
        <mxCell id="dWQ8O_4r9y9YvBFa44wk-357" value="" style="ellipse;whiteSpace=wrap;html=1;aspect=fixed;" parent="1" vertex="1">
          <mxGeometry x="-1840.83" y="-1469.5" width="50" height="50" as="geometry" />
        </mxCell>
        <mxCell id="dWQ8O_4r9y9YvBFa44wk-358" value="" style="ellipse;whiteSpace=wrap;html=1;aspect=fixed;" parent="1" vertex="1">
          <mxGeometry x="-1776.81" y="-1472.5" width="50" height="50" as="geometry" />
        </mxCell>
        <mxCell id="dWQ8O_4r9y9YvBFa44wk-359" value="" style="rhombus;whiteSpace=wrap;html=1;" parent="1" vertex="1">
          <mxGeometry x="-1017.67" y="-1528.5" width="63" height="62" as="geometry" />
        </mxCell>
        <mxCell id="dWQ8O_4r9y9YvBFa44wk-360" value="" style="rhombus;whiteSpace=wrap;html=1;" parent="1" vertex="1">
          <mxGeometry x="-1054.82" y="-1464.5" width="63" height="62" as="geometry" />
        </mxCell>
        <mxCell id="dWQ8O_4r9y9YvBFa44wk-361" value="" style="rhombus;whiteSpace=wrap;html=1;" parent="1" vertex="1">
          <mxGeometry x="-969.8100000000001" y="-1466.5" width="63" height="62" as="geometry" />
        </mxCell>
        <mxCell id="dWQ8O_4r9y9YvBFa44wk-368" value="" style="ellipse;whiteSpace=wrap;html=1;aspect=fixed;" parent="1" vertex="1">
          <mxGeometry x="-1724.07" y="-1506.5" width="50" height="50" as="geometry" />
        </mxCell>
        <mxCell id="dWQ8O_4r9y9YvBFa44wk-369" value="" style="ellipse;whiteSpace=wrap;html=1;aspect=fixed;" parent="1" vertex="1">
          <mxGeometry x="-1705.56" y="-1440.5" width="50" height="50" as="geometry" />
        </mxCell>
        <mxCell id="dWQ8O_4r9y9YvBFa44wk-370" value="" style="ellipse;whiteSpace=wrap;html=1;aspect=fixed;" parent="1" vertex="1">
          <mxGeometry x="-1804.32" y="-1407.5" width="50" height="50" as="geometry" />
        </mxCell>
        <mxCell id="dWQ8O_4r9y9YvBFa44wk-371" value="" style="ellipse;whiteSpace=wrap;html=1;aspect=fixed;" parent="1" vertex="1">
          <mxGeometry x="-1736.3" y="-1387.5" width="50" height="50" as="geometry" />
        </mxCell>
        <mxCell id="dWQ8O_4r9y9YvBFa44wk-384" value="" style="rhombus;whiteSpace=wrap;html=1;" parent="1" vertex="1">
          <mxGeometry x="-919.9300000000001" y="-1523" width="63" height="62" as="geometry" />
        </mxCell>
        <mxCell id="dWQ8O_4r9y9YvBFa44wk-385" value="" style="rhombus;whiteSpace=wrap;html=1;" parent="1" vertex="1">
          <mxGeometry x="-904.9300000000001" y="-1435.5" width="63" height="62" as="geometry" />
        </mxCell>
        <mxCell id="dWQ8O_4r9y9YvBFa44wk-386" value="" style="rhombus;whiteSpace=wrap;html=1;" parent="1" vertex="1">
          <mxGeometry x="-1012.3100000000001" y="-1396.5" width="63" height="62" as="geometry" />
        </mxCell>
        <mxCell id="dWQ8O_4r9y9YvBFa44wk-387" value="" style="rhombus;whiteSpace=wrap;html=1;" parent="1" vertex="1">
          <mxGeometry x="-1119.6799999999998" y="-1444.5" width="63" height="62" as="geometry" />
        </mxCell>
        <mxCell id="dWQ8O_4r9y9YvBFa44wk-391" value="" style="shape=singleArrow;direction=south;whiteSpace=wrap;html=1;fillColor=#f0a30a;fontColor=#000000;strokeColor=#BD7000;" parent="1" vertex="1">
          <mxGeometry x="-1424.28" y="-1237" width="107.43" height="128" as="geometry" />
        </mxCell>
        <mxCell id="gRMtToLH8hSRWASS8SIi-2" value="" style="rounded=1;whiteSpace=wrap;html=1;fontSize=12;strokeColor=#666666;fillColor=#f5f5f5;fontColor=#333333;" vertex="1" parent="1">
          <mxGeometry x="-1592.1" y="-3420" width="254.75" height="216.5" as="geometry" />
        </mxCell>
        <mxCell id="gRMtToLH8hSRWASS8SIi-3" value="" style="ellipse;whiteSpace=wrap;html=1;aspect=fixed;fillColor=#dae8fc;strokeColor=#6c8ebf;" vertex="1" parent="1">
          <mxGeometry x="-1401.0899999999997" y="-3329.75" width="12" height="12" as="geometry" />
        </mxCell>
        <mxCell id="gRMtToLH8hSRWASS8SIi-4" style="edgeStyle=none;rounded=0;orthogonalLoop=1;jettySize=auto;html=1;entryX=1;entryY=1;entryDx=0;entryDy=0;endArrow=none;endFill=0;strokeColor=#000000;fillColor=#dae8fc;" edge="1" parent="1" source="gRMtToLH8hSRWASS8SIi-5" target="gRMtToLH8hSRWASS8SIi-3">
          <mxGeometry relative="1" as="geometry" />
        </mxCell>
        <mxCell id="gRMtToLH8hSRWASS8SIi-5" value="" style="ellipse;whiteSpace=wrap;html=1;aspect=fixed;fillColor=#f8cecc;strokeColor=#000000;" vertex="1" parent="1">
          <mxGeometry x="-1382.0899999999997" y="-3290.75" width="12" height="12" as="geometry" />
        </mxCell>
        <mxCell id="gRMtToLH8hSRWASS8SIi-6" style="edgeStyle=none;rounded=0;orthogonalLoop=1;jettySize=auto;html=1;entryX=0;entryY=1;entryDx=0;entryDy=0;endArrow=none;endFill=0;strokeColor=#000000;fillColor=#dae8fc;" edge="1" parent="1" source="gRMtToLH8hSRWASS8SIi-7" target="gRMtToLH8hSRWASS8SIi-5">
          <mxGeometry relative="1" as="geometry" />
        </mxCell>
        <mxCell id="gRMtToLH8hSRWASS8SIi-7" value="" style="ellipse;whiteSpace=wrap;html=1;aspect=fixed;fillColor=#dae8fc;strokeColor=#000000;" vertex="1" parent="1">
          <mxGeometry x="-1418.0899999999997" y="-3257.75" width="12" height="12" as="geometry" />
        </mxCell>
        <mxCell id="gRMtToLH8hSRWASS8SIi-8" style="edgeStyle=none;rounded=0;orthogonalLoop=1;jettySize=auto;html=1;entryX=0;entryY=0.5;entryDx=0;entryDy=0;endArrow=none;endFill=0;strokeColor=#000000;fillColor=#dae8fc;" edge="1" parent="1" source="gRMtToLH8hSRWASS8SIi-10" target="gRMtToLH8hSRWASS8SIi-7">
          <mxGeometry relative="1" as="geometry" />
        </mxCell>
        <mxCell id="gRMtToLH8hSRWASS8SIi-9" style="edgeStyle=none;rounded=0;orthogonalLoop=1;jettySize=auto;html=1;entryX=0;entryY=1;entryDx=0;entryDy=0;endArrow=none;endFill=0;strokeColor=#000000;fillColor=#dae8fc;" edge="1" parent="1" source="gRMtToLH8hSRWASS8SIi-10" target="gRMtToLH8hSRWASS8SIi-22">
          <mxGeometry relative="1" as="geometry" />
        </mxCell>
        <mxCell id="gRMtToLH8hSRWASS8SIi-10" value="" style="ellipse;whiteSpace=wrap;html=1;aspect=fixed;fillColor=#ffe6cc;strokeColor=#d79b00;" vertex="1" parent="1">
          <mxGeometry x="-1516.0899999999997" y="-3257.75" width="12" height="12" as="geometry" />
        </mxCell>
        <mxCell id="gRMtToLH8hSRWASS8SIi-11" style="edgeStyle=none;rounded=0;orthogonalLoop=1;jettySize=auto;html=1;entryX=0;entryY=1;entryDx=0;entryDy=0;endArrow=none;endFill=0;strokeColor=#000000;fillColor=#dae8fc;" edge="1" parent="1" source="gRMtToLH8hSRWASS8SIi-14" target="gRMtToLH8hSRWASS8SIi-3">
          <mxGeometry relative="1" as="geometry" />
        </mxCell>
        <mxCell id="gRMtToLH8hSRWASS8SIi-12" style="edgeStyle=none;rounded=0;orthogonalLoop=1;jettySize=auto;html=1;entryX=0;entryY=0;entryDx=0;entryDy=0;endArrow=none;endFill=0;strokeColor=#000000;fillColor=#dae8fc;" edge="1" parent="1" source="gRMtToLH8hSRWASS8SIi-14" target="gRMtToLH8hSRWASS8SIi-22">
          <mxGeometry relative="1" as="geometry" />
        </mxCell>
        <mxCell id="gRMtToLH8hSRWASS8SIi-13" value="" style="edgeStyle=none;rounded=0;orthogonalLoop=1;jettySize=auto;html=1;endArrow=none;endFill=0;strokeColor=#000000;fillColor=#dae8fc;" edge="1" parent="1" source="gRMtToLH8hSRWASS8SIi-14" target="gRMtToLH8hSRWASS8SIi-10">
          <mxGeometry relative="1" as="geometry" />
        </mxCell>
        <mxCell id="gRMtToLH8hSRWASS8SIi-14" value="" style="ellipse;whiteSpace=wrap;html=1;aspect=fixed;fillColor=#fff2cc;strokeColor=#d6b656;" vertex="1" parent="1">
          <mxGeometry x="-1480.3399999999997" y="-3317.75" width="12" height="12" as="geometry" />
        </mxCell>
        <mxCell id="gRMtToLH8hSRWASS8SIi-15" style="edgeStyle=none;rounded=0;orthogonalLoop=1;jettySize=auto;html=1;entryX=1;entryY=0;entryDx=0;entryDy=0;endArrow=none;endFill=0;strokeColor=#000000;fillColor=#dae8fc;" edge="1" parent="1" source="gRMtToLH8hSRWASS8SIi-17" target="gRMtToLH8hSRWASS8SIi-19">
          <mxGeometry relative="1" as="geometry" />
        </mxCell>
        <mxCell id="gRMtToLH8hSRWASS8SIi-16" style="edgeStyle=none;rounded=0;orthogonalLoop=1;jettySize=auto;html=1;exitX=0;exitY=0.5;exitDx=0;exitDy=0;entryX=0;entryY=0.5;entryDx=0;entryDy=0;endArrow=none;endFill=0;strokeColor=#000000;fillColor=#dae8fc;" edge="1" parent="1" source="gRMtToLH8hSRWASS8SIi-17" target="gRMtToLH8hSRWASS8SIi-14">
          <mxGeometry relative="1" as="geometry" />
        </mxCell>
        <mxCell id="gRMtToLH8hSRWASS8SIi-17" value="" style="ellipse;whiteSpace=wrap;html=1;aspect=fixed;fillColor=#dae8fc;strokeColor=#000000;" vertex="1" parent="1">
          <mxGeometry x="-1558.0899999999997" y="-3310.25" width="12" height="12" as="geometry" />
        </mxCell>
        <mxCell id="gRMtToLH8hSRWASS8SIi-18" style="edgeStyle=none;rounded=0;orthogonalLoop=1;jettySize=auto;html=1;entryX=0;entryY=0.5;entryDx=0;entryDy=0;endArrow=none;endFill=0;strokeColor=#000000;fillColor=#dae8fc;" edge="1" parent="1" source="gRMtToLH8hSRWASS8SIi-19" target="gRMtToLH8hSRWASS8SIi-10">
          <mxGeometry relative="1" as="geometry" />
        </mxCell>
        <mxCell id="gRMtToLH8hSRWASS8SIi-19" value="" style="ellipse;whiteSpace=wrap;html=1;aspect=fixed;fillColor=#dae8fc;strokeColor=#000000;" vertex="1" parent="1">
          <mxGeometry x="-1570.0899999999997" y="-3245.75" width="12" height="12" as="geometry" />
        </mxCell>
        <mxCell id="gRMtToLH8hSRWASS8SIi-20" value="" style="edgeStyle=none;rounded=0;orthogonalLoop=1;jettySize=auto;html=1;endArrow=none;endFill=0;strokeColor=#000000;fillColor=#dae8fc;" edge="1" parent="1" source="gRMtToLH8hSRWASS8SIi-22" target="gRMtToLH8hSRWASS8SIi-5">
          <mxGeometry relative="1" as="geometry" />
        </mxCell>
        <mxCell id="gRMtToLH8hSRWASS8SIi-21" style="edgeStyle=none;rounded=0;orthogonalLoop=1;jettySize=auto;html=1;endArrow=none;endFill=0;strokeColor=#000000;fillColor=#dae8fc;" edge="1" parent="1" source="gRMtToLH8hSRWASS8SIi-22">
          <mxGeometry relative="1" as="geometry">
            <mxPoint x="-1420.233762925092" y="-3255.4656623391543" as="targetPoint" />
          </mxGeometry>
        </mxCell>
        <mxCell id="gRMtToLH8hSRWASS8SIi-22" value="" style="ellipse;whiteSpace=wrap;html=1;aspect=fixed;fillColor=#dae8fc;strokeColor=#000000;" vertex="1" parent="1">
          <mxGeometry x="-1451.0899999999997" y="-3283.75" width="12" height="12" as="geometry" />
        </mxCell>
        <mxCell id="gRMtToLH8hSRWASS8SIi-23" style="edgeStyle=none;rounded=0;orthogonalLoop=1;jettySize=auto;html=1;entryX=0;entryY=1;entryDx=0;entryDy=0;endArrow=none;endFill=0;strokeColor=#000000;fillColor=#dae8fc;" edge="1" parent="1" source="gRMtToLH8hSRWASS8SIi-24" target="gRMtToLH8hSRWASS8SIi-33">
          <mxGeometry relative="1" as="geometry" />
        </mxCell>
        <mxCell id="gRMtToLH8hSRWASS8SIi-24" value="" style="ellipse;whiteSpace=wrap;html=1;aspect=fixed;fillColor=#f8cecc;strokeColor=#b85450;" vertex="1" parent="1">
          <mxGeometry x="-1457.4399999999996" y="-3348.25" width="12" height="12" as="geometry" />
        </mxCell>
        <mxCell id="gRMtToLH8hSRWASS8SIi-25" style="edgeStyle=none;rounded=0;orthogonalLoop=1;jettySize=auto;html=1;entryX=0;entryY=0;entryDx=0;entryDy=0;endArrow=none;endFill=0;strokeColor=#000000;fillColor=#dae8fc;" edge="1" parent="1" source="gRMtToLH8hSRWASS8SIi-27" target="gRMtToLH8hSRWASS8SIi-33">
          <mxGeometry relative="1" as="geometry" />
        </mxCell>
        <mxCell id="gRMtToLH8hSRWASS8SIi-26" value="" style="edgeStyle=none;rounded=0;orthogonalLoop=1;jettySize=auto;html=1;endArrow=none;endFill=0;strokeColor=#000000;fillColor=#dae8fc;" edge="1" parent="1" source="gRMtToLH8hSRWASS8SIi-27" target="gRMtToLH8hSRWASS8SIi-24">
          <mxGeometry relative="1" as="geometry" />
        </mxCell>
        <mxCell id="gRMtToLH8hSRWASS8SIi-27" value="" style="ellipse;whiteSpace=wrap;html=1;aspect=fixed;fillColor=#f8cecc;strokeColor=#b85450;" vertex="1" parent="1">
          <mxGeometry x="-1421.6899999999996" y="-3408.25" width="12" height="12" as="geometry" />
        </mxCell>
        <mxCell id="gRMtToLH8hSRWASS8SIi-28" style="edgeStyle=none;rounded=0;orthogonalLoop=1;jettySize=auto;html=1;entryX=1;entryY=0;entryDx=0;entryDy=0;endArrow=none;endFill=0;strokeColor=#000000;fillColor=#dae8fc;startArrow=none;exitX=0.5;exitY=0;exitDx=0;exitDy=0;" edge="1" parent="1" source="gRMtToLH8hSRWASS8SIi-17" target="gRMtToLH8hSRWASS8SIi-32">
          <mxGeometry relative="1" as="geometry">
            <mxPoint x="-1529.7590595373458" y="-3317.75" as="sourcePoint" />
          </mxGeometry>
        </mxCell>
        <mxCell id="gRMtToLH8hSRWASS8SIi-29" style="edgeStyle=none;rounded=0;orthogonalLoop=1;jettySize=auto;html=1;exitX=0;exitY=0.5;exitDx=0;exitDy=0;entryX=0;entryY=0.5;entryDx=0;entryDy=0;endArrow=none;endFill=0;strokeColor=#000000;fillColor=#dae8fc;" edge="1" parent="1" source="gRMtToLH8hSRWASS8SIi-30" target="gRMtToLH8hSRWASS8SIi-27">
          <mxGeometry relative="1" as="geometry" />
        </mxCell>
        <mxCell id="gRMtToLH8hSRWASS8SIi-30" value="" style="ellipse;whiteSpace=wrap;html=1;aspect=fixed;fillColor=#d5e8d4;strokeColor=#82b366;" vertex="1" parent="1">
          <mxGeometry x="-1499.4399999999996" y="-3400.75" width="12" height="12" as="geometry" />
        </mxCell>
        <mxCell id="gRMtToLH8hSRWASS8SIi-31" style="edgeStyle=none;rounded=0;orthogonalLoop=1;jettySize=auto;html=1;entryX=0;entryY=0.5;entryDx=0;entryDy=0;endArrow=none;endFill=0;strokeColor=#000000;fillColor=#dae8fc;" edge="1" parent="1" source="gRMtToLH8hSRWASS8SIi-32" target="gRMtToLH8hSRWASS8SIi-24">
          <mxGeometry relative="1" as="geometry" />
        </mxCell>
        <mxCell id="gRMtToLH8hSRWASS8SIi-32" value="" style="ellipse;whiteSpace=wrap;html=1;aspect=fixed;fillColor=#dae8fc;strokeColor=#000000;" vertex="1" parent="1">
          <mxGeometry x="-1511.4399999999996" y="-3336.25" width="12" height="12" as="geometry" />
        </mxCell>
        <mxCell id="gRMtToLH8hSRWASS8SIi-33" value="" style="ellipse;whiteSpace=wrap;html=1;aspect=fixed;fillColor=#dae8fc;strokeColor=#000000;" vertex="1" parent="1">
          <mxGeometry x="-1392.4399999999996" y="-3374.25" width="12" height="12" as="geometry" />
        </mxCell>
        <mxCell id="gRMtToLH8hSRWASS8SIi-34" value="" style="edgeStyle=none;rounded=0;orthogonalLoop=1;jettySize=auto;html=1;endArrow=none;endFill=0;strokeColor=#000000;fillColor=#dae8fc;" edge="1" parent="1" source="gRMtToLH8hSRWASS8SIi-30">
          <mxGeometry relative="1" as="geometry">
            <mxPoint x="-1494.1410474853042" y="-3388.7910963749136" as="sourcePoint" />
            <mxPoint x="-1502.85" y="-3337.25" as="targetPoint" />
          </mxGeometry>
        </mxCell>
        <mxCell id="gRMtToLH8hSRWASS8SIi-35" value="" style="endArrow=none;html=1;rounded=0;fontSize=12;exitX=0.5;exitY=0;exitDx=0;exitDy=0;entryX=0.5;entryY=1;entryDx=0;entryDy=0;strokeColor=#000000;" edge="1" parent="1" source="gRMtToLH8hSRWASS8SIi-3" target="gRMtToLH8hSRWASS8SIi-33">
          <mxGeometry width="50" height="50" relative="1" as="geometry">
            <mxPoint x="-1398.85" y="-3334.25" as="sourcePoint" />
            <mxPoint x="-1436.85" y="-3418.25" as="targetPoint" />
          </mxGeometry>
        </mxCell>
        <mxCell id="gRMtToLH8hSRWASS8SIi-36" style="edgeStyle=orthogonalEdgeStyle;rounded=0;orthogonalLoop=1;jettySize=auto;html=1;exitX=0;exitY=0.5;exitDx=0;exitDy=0;entryX=0;entryY=0;entryDx=0;entryDy=0;fontSize=12;strokeColor=#82b366;fillColor=#d5e8d4;" edge="1" parent="1" source="gRMtToLH8hSRWASS8SIi-19" target="gRMtToLH8hSRWASS8SIi-19">
          <mxGeometry relative="1" as="geometry" />
        </mxCell>
        <mxCell id="gRMtToLH8hSRWASS8SIi-37" value="&lt;font style=&quot;font-size: 24px&quot;&gt;全局索引&lt;/font&gt;" style="text;html=1;strokeColor=none;fillColor=none;align=center;verticalAlign=middle;whiteSpace=wrap;rounded=0;fontSize=12;" vertex="1" parent="1">
          <mxGeometry x="-1497.1699999999996" y="-3168.75" width="116" height="53" as="geometry" />
        </mxCell>
      </root>
    </mxGraphModel>
  </diagram>
</mxfile>
